<svg xmlns="http://www.w3.org/2000/svg" width="88.561" height="68.815" viewBox="0 0 88.561 68.815">
  <g id="akgAv5.tif" transform="translate(532.212 1232.612)">
    <g id="Grupo_124247" data-name="Grupo 124247" transform="translate(-532.212 -1232.612)">
      <path id="Trazado_174123" data-name="Trazado 174123" d="M-443.652-1187.874c-.335,1.774-.537,3.585-1.03,5.314a24.958,24.958,0,0,1-12.8,15.77A24.991,24.991,0,0,1-477-1164.984a23.707,23.707,0,0,1-10.217-6.063,4.158,4.158,0,0,0-3.3-1.353c-13.489.052-26.978.031-40.466.031h-1.236l25.454-44.067,1.218,2.01.153-.045v-18.141h40.942v1.046c0,5.3.01,10.6-.013,15.9,0,.623.161.876.8,1.036,8.813,2.194,14.965,7.506,18.281,15.951a46.569,46.569,0,0,1,1.546,6.258c.072.3.119.61.177.915Zm-58.588-7.066h34.657v-34.626H-502.24Zm37.782,3.125h-26.388a1.8,1.8,0,0,0-.683.02c-.208.093-.489.319-.5.5a22.368,22.368,0,0,0,.952,8.5,22.767,22.767,0,0,0,26.2,15.465,22.728,22.728,0,0,0,17.963-24.926,22.608,22.608,0,0,0-16.67-19.206c-.259-.069-.528-.1-.874-.171Zm-40.92,0v-1.073c0-4.607-.053-9.215.032-13.821.026-1.427-.73-2.376-1.415-3.583l-20.087,34.786h35.767a1.178,1.178,0,0,0-.068-.23,25.845,25.845,0,0,1-4.048-14.239,1.8,1.8,0,0,0-1.864-1.839Z" transform="translate(532.212 1232.612)" fill="#0f1027"/>
    </g>
  </g>
</svg>
