<svg xmlns="http://www.w3.org/2000/svg" width="67.559" height="71.627" viewBox="0 0 67.559 71.627">
  <g id="bTCUOk.tif" transform="translate(49.654 1374.75)">
    <g id="Grupo_124249" data-name="Grupo 124249" transform="translate(-49.654 -1374.75)">
      <path id="Trazado_174125" data-name="Trazado 174125" d="M100.19-1253.331c-1.747,1.045-3.45,2.182-5.275,3.066a2.021,2.021,0,0,1-1.815-.775c-.256-.462.07-1.363.359-1.967.176-.368.764-.538,1.372-.928a8.925,8.925,0,0,1-2.222-1.426,7.164,7.164,0,0,1-.838-2.238,8.24,8.24,0,0,1,2.49-.57c.684.055,1.323.677,1.8.948a11.109,11.109,0,0,1,2.239-2.28c.3-.174,1.24.756,1.888,1.181Z" transform="translate(-32.631 1307.708)" fill="#0f1027"/>
      <path id="Trazado_174126" data-name="Trazado 174126" d="M101.183-1328.751c-.752.462-1.866,1.482-2.185,1.275a6.751,6.751,0,0,1-1.593-2.19l-3.312-.814.743-3c-.121-.083-.773-.3-.977-.727a2.592,2.592,0,0,1-.259-2.011,2.055,2.055,0,0,1,1.876-.709c1.965.93,3.815,2.1,5.707,3.188Z" transform="translate(-33.623 1352.776)" fill="#0f1027"/>
      <path id="Trazado_174127" data-name="Trazado 174127" d="M107.012-1290.859l-2.246,1.391a7.738,7.738,0,0,1-1.165-2.54c-.146-2.953-.135-5.923,0-8.878a7.443,7.443,0,0,1,1.066-2.414l2.349,1.215Z" transform="translate(-39.453 1333.178)" fill="#0f1027"/>
      <path id="Trazado_174128" data-name="Trazado 174128" d="M-46.1-1352.36v27.784c1.3-.764,2.358-1.38,3.411-2.006q8.654-5.143,17.306-10.29c.416-.247.839-.484,1.254-.733,1.013-.609,2-.744,2.685.414.708,1.2-.02,1.949-1,2.528q-5.805,3.436-11.619,6.858c-3.332,1.97-6.661,3.945-9.957,5.9.017.226-.024.426.044.475.953.7,2.188,1.373,1.356,2.79-.883,1.5-2.064.635-3.26.213-2.982-1.053-3.845-2.983-3.775-6.142.222-10.04.12-20.089.046-30.133a3.48,3.48,0,0,1,2.113-3.572q14.758-7.824,29.41-15.848c1.385-.756,2.449-.971,3.71.19a12.682,12.682,0,0,0,2.671,1.58c1.1.592,1.954,1.513,1.1,2.6-.4.509-1.75.312-2.673.345-.3.011-.606-.265-1.176-.536-.045.9-.112,1.607-.112,2.318q-.013,9.872-.005,19.744c0,.485.172,1.076-.044,1.432a15.572,15.572,0,0,1-1.653,1.978c-.542-.658-1.52-1.3-1.551-1.976-.161-3.457-.077-6.924-.078-10.388,0-4.407,0-8.814,0-13.61l-25.667,13.839c.317,1.352,1.017,2.606.661,3.369C-43.172-1352.65-44.771-1352.681-46.1-1352.36Z" transform="translate(49.654 1374.75)" fill="#0f1027"/>
      <path id="Trazado_174129" data-name="Trazado 174129" d="M18.953-1299.668a24.6,24.6,0,0,1,2.57,1.276,3.225,3.225,0,0,0,3.964.041,3.1,3.1,0,0,1,1.681-.7,2.2,2.2,0,0,1,1.642.861,2.085,2.085,0,0,1-.258,1.82,3.825,3.825,0,0,1-1.742,1.04,2.2,2.2,0,0,0-1.668,2.658,3.29,3.29,0,0,1-.108,1.831,2.212,2.212,0,0,1-1.4,1.2c-.512.037-1.148-.528-1.582-.974a1.533,1.533,0,0,1-.2-1.185c.421-2.155-.566-3.353-2.525-4.007a2.541,2.541,0,0,1-1.374-.849,2.652,2.652,0,0,1-.3-1.867C17.793-1298.989,18.492-1299.287,18.953-1299.668Z" transform="translate(10.529 1331.065)" fill="#0f1027"/>
      <path id="Trazado_174130" data-name="Trazado 174130" d="M21.1-1218.441l2.57-2.647,2.182,2.376-.4.389c.128.026.29.114.38.067,1.351-.71,2.816-1.041,3.535.612.705,1.62-1.024,1.883-1.947,2.626-3.421,2.754-6.209.529-9-1.137a2.179,2.179,0,0,1-.508-2.088c.24-.47,1.327-.671,2.045-.679A2.151,2.151,0,0,1,21.1-1218.441Z" transform="translate(10.399 1285.345)" fill="#0f1027"/>
      <path id="Trazado_174131" data-name="Trazado 174131" d="M54.929-1309.619a6.927,6.927,0,0,1-.667-1.964c-.019-.6.2-1.553.622-1.78,3.346-1.8,6.743-3.52,10.19-5.12a2.023,2.023,0,0,1,1.881.64c.279.472.107,1.776-.267,1.98-3.456,1.879-7,3.6-10.517,5.359a1.282,1.282,0,0,1-.409.053Z" transform="translate(-10.807 1342.047)" fill="#0f1027"/>
      <path id="Trazado_174132" data-name="Trazado 174132" d="M67.018-1233.984a5.349,5.349,0,0,1-1.279,1.279c-2.993,1.587-6,3.162-9.089,4.541a2.646,2.646,0,0,1-2.462-.473c-.757-.977-.12-1.913.986-2.463,3.035-1.507,6.038-3.078,9.09-4.549C65.793-1236.386,67-1235.78,67.018-1233.984Z" transform="translate(-10.572 1293.995)" fill="#0f1027"/>
      <path id="Trazado_174133" data-name="Trazado 174133" d="M30.829-1257.982c0,1.588-.009,3.176,0,4.763.009,1.167-.35,2.277-1.658,2.034a2.6,2.6,0,0,1-1.589-1.9c-.167-3.306-.082-6.624-.073-9.937,0-1.21.6-2.2,1.81-1.93a2.745,2.745,0,0,1,1.44,2A37.5,37.5,0,0,1,30.829-1257.982Z" transform="translate(4.774 1310.89)" fill="#0f1027"/>
      <path id="Trazado_174134" data-name="Trazado 174134" d="M45.645-1285.155c2.225,1.384,4.349,2.626,6.354,4.037a1.864,1.864,0,0,1-.061,1.8,2.227,2.227,0,0,1-1.965.514,38.257,38.257,0,0,1-5.366-3.061,2.221,2.221,0,0,1-.522-1.938C44.2-1284.3,45-1284.633,45.645-1285.155Z" transform="translate(-4.86 1322.621)" fill="#0f1027"/>
      <path id="Trazado_174135" data-name="Trazado 174135" d="M76.171-1266.063a1.712,1.712,0,0,1-2.41,1.62,47.125,47.125,0,0,1-5.349-3.1,2,2,0,0,1-.515-1.9c.35-.531,1.492-1.109,1.945-.9a54.588,54.588,0,0,1,5.744,3.218C75.929-1266.913,76.037-1266.32,76.171-1266.063Z" transform="translate(-18.69 1314.027)" fill="#0f1027"/>
      <path id="Trazado_174136" data-name="Trazado 174136" d="M50.333-1362.851c2,1.308,3.958,2.529,5.824,3.876.237.171.2,1.14-.061,1.475-.32.419-1.179.923-1.492.766a54.809,54.809,0,0,1-5.652-3.273c-.278-.184-.229-1.171-.033-1.669C49.083-1362.093,49.682-1362.338,50.333-1362.851Z" transform="translate(-7.605 1367.827)" fill="#0f1027"/>
      <path id="Trazado_174137" data-name="Trazado 174137" d="M-20.042-1318.168c-.985.365-1.953,1.106-2.594.887a21.365,21.365,0,0,1-4.747-2.443,2.1,2.1,0,0,1-.611-1.918c.182-.5,1.3-1.141,1.7-.977a45.363,45.363,0,0,1,5.315,2.688C-20.637-1319.739-20.534-1319.133-20.042-1318.168Z" transform="translate(37.083 1344.434)" fill="#0f1027"/>
      <path id="Trazado_174138" data-name="Trazado 174138" d="M2.82-1223.848c-.861.417-1.789,1.257-2.335,1.057a25.641,25.641,0,0,1-5.1-2.637A2.136,2.136,0,0,1-5-1227.39a1.829,1.829,0,0,1,1.621-.806,49.842,49.842,0,0,1,5.3,2.709C2.263-1225.291,2.375-1224.691,2.82-1223.848Z" transform="translate(23.72 1289.498)" fill="#0f1027"/>
      <path id="Trazado_174139" data-name="Trazado 174139" d="M72.622-1350.306c1.97,1.2,3.886,2.283,5.666,3.551.312.222.27,1.359,0,1.855a1.7,1.7,0,0,1-1.564.6,47.242,47.242,0,0,1-5.365-3.068c-.324-.214-.4-1.2-.206-1.686S72-1349.807,72.622-1350.306Z" transform="translate(-20.573 1360.528)" fill="#0f1027"/>
      <path id="Trazado_174140" data-name="Trazado 174140" d="M-27.359-1241.812c2.768,1.552,4.708,2.55,6.521,3.741a1.871,1.871,0,0,1,.042,1.818,2.2,2.2,0,0,1-1.932.588,28.34,28.34,0,0,1-4.737-2.466,2.275,2.275,0,0,1-.632-1.769A6.39,6.39,0,0,1-27.359-1241.812Z" transform="translate(37.114 1297.403)" fill="#0f1027"/>
      <path id="Trazado_174141" data-name="Trazado 174141" d="M-3.825-1311.764c1.991,1.1,3.888,2.059,5.653,3.216.337.22.412,1.379.146,1.833a1.91,1.91,0,0,1-1.677.756,37.134,37.134,0,0,1-5.257-2.78c-.357-.227-.434-1.28-.261-1.834C-5.076-1311.035-4.376-1311.322-3.825-1311.764Z" transform="translate(23.853 1338.103)" fill="#0f1027"/>
    </g>
  </g>
</svg>
