<svg xmlns="http://www.w3.org/2000/svg" xmlns:xlink="http://www.w3.org/1999/xlink" width="84" height="82" viewBox="0 0 84 82">
  <defs>
    <clipPath id="clip-path">
      <rect id="Rectángulo_36029" data-name="Rectángulo 36029" width="84" height="82" transform="translate(-10095 -7694)" fill="#fff" stroke="#707070" stroke-width="1"/>
    </clipPath>
  </defs>
  <g id="Enmascarar_grupo_99" data-name="Enmascarar grupo 99" transform="translate(10095 7694)" clip-path="url(#clip-path)">
    <g id="gu2iQy.tif" transform="translate(-10541.662 -6407.678)">
      <g id="Grupo_124252" data-name="Grupo 124252" transform="translate(459.795 -1275.691)">
        <path id="Trazado_174145" data-name="Trazado 174145" d="M517.529-1246.247a6.806,6.806,0,0,1-1,3.477q-7.523,11.811-15.018,23.64a6.854,6.854,0,0,1-.9,1.172,5.347,5.347,0,0,1-6.866.586q-11.6-7.351-23.205-14.7a2.258,2.258,0,0,0-.924-.341c-2.2-.241-4.408-.449-6.612-.672-1.079-.109-2.156-.229-3.207-.341l23.531-37.112,3.663,2.333c.005-.229.007-.427.014-.624a7.168,7.168,0,0,1,5.19-6.6,7.152,7.152,0,0,1,8.927,5.412c.9,4.043,1.8,8.087,2.727,12.125a1.362,1.362,0,0,0,.536.766c3.133,2.016,6.27,4.03,9.438,5.99a7.7,7.7,0,0,1,3.37,3.381Zm-21.444,2.815-3.472.777-.147-.656q-2.149-9.6-4.285-19.211a1.663,1.663,0,0,0-.846-1.181c-1-.6-1.972-1.243-2.907-1.839l-18.488,29.159c1.451.144,2.961.307,4.475.438a3.415,3.415,0,0,1,1.595.548q11.713,7.455,23.445,14.882c1.419.9,2.267.712,3.161-.7q7.4-11.676,14.807-23.352c.82-1.294.625-2.185-.65-2.994l-19.835-12.579c-.179-.114-.364-.219-.683-.411Zm3.449-17.319q-.941-4.2-1.883-8.408a3.573,3.573,0,0,0-4.272-2.887,3.67,3.67,0,0,0-2.728,4.4,4.183,4.183,0,0,0,2.3,3.336c2.265,1.256,4.4,2.744,6.734,4.225Z" transform="translate(-459.795 1275.691)" fill="#0f1027"/>
        <path id="Trazado_174146" data-name="Trazado 174146" d="M466.35-1158.409c2.035,2.214,4.1,4.4,6.083,6.661a5.818,5.818,0,0,1,1.164,2.164,5.24,5.24,0,0,1-2.136,5.786,5.346,5.346,0,0,1-6.13-.081,5.306,5.306,0,0,1-2.013-5.837c.293-1.027.628-2.042.947-3.062.6-1.922,1.205-3.844,1.835-5.852C466.235-1158.51,466.3-1158.465,466.35-1158.409Zm.377,9.776a1.716,1.716,0,0,0,.911,1.992,1.743,1.743,0,0,0,2.151-.423,1.707,1.707,0,0,0,.1-2.189c-.673-.818-1.419-1.577-2.219-2.456C467.323-1150.594,466.993-1149.622,466.727-1148.633Z" transform="translate(-461.831 1203.609)" fill="#0f1027"/>
      </g>
    </g>
  </g>
</svg>
