<svg xmlns="http://www.w3.org/2000/svg" width="59.422" height="62.512" viewBox="0 0 59.422 62.512">
  <g id="gu2iQy.tif" transform="translate(-459.795 1275.691)">
    <g id="Grupo_124252" data-name="Grupo 124252" transform="translate(459.795 -1275.691)">
      <path id="Trazado_174145" data-name="Trazado 174145" d="M519.217-1245.387a7,7,0,0,1-1.027,3.579q-7.743,12.157-15.456,24.331a7.061,7.061,0,0,1-.931,1.207,5.5,5.5,0,0,1-7.067.6q-11.942-7.566-23.883-15.135a2.326,2.326,0,0,0-.951-.351c-2.266-.248-4.536-.462-6.8-.692-1.11-.112-2.219-.236-3.3-.351l24.219-38.2,3.77,2.4c.005-.236.007-.439.014-.643a7.377,7.377,0,0,1,5.341-6.79,7.361,7.361,0,0,1,9.188,5.571c.931,4.161,1.854,8.324,2.807,12.479a1.4,1.4,0,0,0,.552.788c3.225,2.075,6.453,4.147,9.714,6.165a7.92,7.92,0,0,1,3.469,3.479Zm-22.07,2.9-3.573.8-.151-.675q-2.212-9.885-4.41-19.772a1.711,1.711,0,0,0-.871-1.216c-1.031-.613-2.03-1.28-2.992-1.893l-19.028,30.011c1.493.148,3.048.316,4.606.45a3.514,3.514,0,0,1,1.641.564q12.056,7.673,24.13,15.317c1.461.926,2.334.733,3.253-.717q7.62-12.017,15.239-24.035c.844-1.332.643-2.249-.669-3.081l-20.415-12.947c-.185-.117-.375-.226-.7-.423Zm3.55-17.825q-.969-4.327-1.938-8.654a3.677,3.677,0,0,0-4.4-2.971,3.777,3.777,0,0,0-2.808,4.527,4.3,4.3,0,0,0,2.365,3.434c2.331,1.293,4.53,2.824,6.931,4.348Z" transform="translate(-459.795 1275.691)" fill="#0f1027"/>
      <path id="Trazado_174146" data-name="Trazado 174146" d="M466.445-1158.4c2.095,2.278,4.221,4.529,6.26,6.856a5.987,5.987,0,0,1,1.2,2.227,5.393,5.393,0,0,1-2.2,5.955,5.5,5.5,0,0,1-6.309-.083,5.461,5.461,0,0,1-2.071-6.007c.3-1.057.646-2.1.975-3.151.619-1.979,1.241-3.957,1.889-6.023C466.327-1158.506,466.392-1158.46,466.445-1158.4Zm.388,10.062a1.766,1.766,0,0,0,.937,2.051,1.794,1.794,0,0,0,2.214-.436,1.757,1.757,0,0,0,.1-2.253c-.693-.842-1.46-1.623-2.284-2.528C467.447-1150.359,467.107-1149.359,466.833-1148.341Z" transform="translate(-461.794 1204.924)" fill="#0f1027"/>
    </g>
  </g>
</svg>
