<svg xmlns="http://www.w3.org/2000/svg" width="69.028" height="68.815" viewBox="0 0 69.028 68.815">
  <g id="vOInKL.tif" transform="translate(154.858 1524.421)">
    <g id="Grupo_124248" data-name="Grupo 124248" transform="translate(-154.858 -1524.421)">
      <path id="Trazado_174124" data-name="Trazado 174124" d="M-154.858-1480.375q9.491-4.805,18.984-9.608c2.811-1.419,5.655-2.772,8.431-4.255a2.34,2.34,0,0,0,1.167-1.579c.1-4.066.053-8.135.053-12.513-1.641,0-3.222.073-4.79-.035a2.771,2.771,0,0,1-1.855-.789c-.205-.263.242-1.252.628-1.724,3.449-4.214,6.942-8.392,10.439-12.566,1.1-1.312,1.59-1.3,2.71.033,3.5,4.175,6.991,8.351,10.437,12.567.38.465.761,1.334.569,1.751s-1.089.69-1.7.73c-1.537.1-3.084.033-4.836.033-.029.636-.075,1.182-.076,1.728-.007,3.153.1,6.311-.043,9.458a3.073,3.073,0,0,0,2.034,3.393c8.292,4.02,16.491,8.233,24.768,12.283,1.461.715,1.721,1.65,1.96,3.159.685,4.32-1.094,6.453-5.009,8.235-9.215,4.2-18.178,8.947-27.237,13.486a17.673,17.673,0,0,0-1.548.981h-1.376a17.841,17.841,0,0,0-1.549-.98q-13.118-6.575-26.246-13.132c-1.989-1-3.947-2.058-5.919-3.089Zm25.379-30.274c1.585,0,2.769.02,3.951-.006,1.044-.022,1.632.392,1.629,1.5-.015,7.852.072,15.707-.087,23.556a7.072,7.072,0,0,1-4.458,6.613c-.593.259-1.482-.162-2.234-.27.4-.576.677-1.386,1.228-1.682a4.969,4.969,0,0,0,2.979-3.757c.238-2.4.06-4.839.06-7.449l-24.579,12.29a6.143,6.143,0,0,0,.69.5c9.621,4.817,19.236,9.645,28.888,14.4a2.831,2.831,0,0,0,2.177-.131q14.088-6.95,28.12-14.015c.368-.184.7-.444,1.185-.758l-24.743-12.359c0,2.246-.04,4.19.01,6.133a5.6,5.6,0,0,0,3.316,5.207c.507.256.743,1.048,1.1,1.593-.694.145-1.522.609-2.061.383a7.283,7.283,0,0,1-4.664-7.01c-.117-7.679-.034-15.361-.062-23.041,0-1.271.559-1.751,1.779-1.7,1.155.046,2.313.01,3.809.01l-9.024-10.816Zm7.8,51.927c.252-3.632.252-3.632-2.752-5.133q-13.113-6.553-26.227-13.106c-.54-.269-1.1-.507-1.695-.783-.52,3.5-.52,3.5,2.306,4.916q13.268,6.631,26.537,13.26C-122.957-1459.293-122.393-1459.052-121.675-1458.721Zm2.523-.007c.689-.333,1.253-.6,1.809-.875l26.546-13.256c2.76-1.379,2.877-1.63,2.149-4.844-.577.264-1.142.5-1.69.777-8.8,4.391-17.548,8.879-26.419,13.115-2.2,1.051-3,2.321-2.564,4.571C-119.3-1459.134-119.255-1459.033-119.152-1458.728Z" transform="translate(154.858 1524.421)" fill="#0f1027"/>
    </g>
  </g>
</svg>
