<svg xmlns="http://www.w3.org/2000/svg" width="65.347" height="64.938" viewBox="0 0 65.347 64.938">
  <g id="wdAW7N.tif" transform="translate(-262.598 1432.087)">
    <g id="Grupo_124250" data-name="Grupo 124250" transform="translate(262.598 -1432.087)">
      <path id="Trazado_174142" data-name="Trazado 174142" d="M327.945-1380.247c-.162.659-.35,1.314-.482,1.979a12.9,12.9,0,0,1-9.185,10.424,12.487,12.487,0,0,1-13.427-3.434,4.819,4.819,0,0,0-4.577-1.558,23.766,23.766,0,0,1-20.289-6.9c-3.452-3.327-6.816-6.746-10.175-10.168a24.668,24.668,0,0,1,.345-35.2,24.8,24.8,0,0,1,35.239.742c2.961,3.077,6.036,6.044,9.048,9.07a24.792,24.792,0,0,1,7.49,21.385c-.1.841,0,2.122.527,2.553,3.236,2.63,4.751,6.112,5.485,10.058Zm-8.44-13.8c2.1-8.677-3.2-18.947-11.6-23.349a22.6,22.6,0,0,0-27.268,4.79,22.658,22.658,0,0,0-2.147,27.808c5.407,8.241,16.315,11.563,21.623,9.673-3.844-4.035-7.747-8.244-11.774-12.329-3.74-3.793-5.252-8.193-3.816-13.36a12.756,12.756,0,0,1,10.1-9.541c5.126-1.134,9.421.7,13.034,4.346Zm-14.349-27.19c-4.941-6.95-14.406-10.255-23.209-8.1-9.138,2.234-15.772,9.866-17.052,19.618-1.014,7.721,3.072,17.027,8.883,20.229C267.871-1408.8,285.338-1427.191,305.156-1421.239Zm11.184,27.292a5.021,5.021,0,0,0-.609-1.063c-3.581-3.568-7.078-7.228-10.8-10.644a11.15,11.15,0,0,0-15.766.6,11.192,11.192,0,0,0,.552,15.958q2.627,2.548,5.241,5.11c1.942,1.915,3.867,3.847,6.037,6.008C301.424-1389.069,306-1393.763,316.339-1393.947Zm-13.154,13.254a11.251,11.251,0,0,0,11.154,11.4,11.4,11.4,0,0,0,11.352-11.283,11.31,11.31,0,0,0-11.1-11.224A11.145,11.145,0,0,0,303.185-1380.693Z" transform="translate(-262.598 1432.087)" fill="#0f1027"/>
    </g>
  </g>
</svg>
