<svg xmlns="http://www.w3.org/2000/svg" xmlns:xlink="http://www.w3.org/1999/xlink" width="84" height="82" viewBox="0 0 84 82">
  <defs>
    <clipPath id="clip-path">
      <rect id="Rectángulo_36025" data-name="Rectángulo 36025" width="84" height="82" transform="translate(-10095 -7694)" fill="#fff" stroke="#707070" stroke-width="1"/>
    </clipPath>
  </defs>
  <g id="Enmascarar_grupo_95" data-name="Enmascarar grupo 95" transform="translate(10095 7694)" clip-path="url(#clip-path)">
    <g id="bTCUOk.tif" transform="translate(-10033.522 -6310.938)">
      <g id="Grupo_124249" data-name="Grupo 124249" transform="translate(-49.654 -1374.75)">
        <path id="Trazado_174125" data-name="Trazado 174125" d="M99.455-1253.872c-1.595.954-3.149,1.991-4.815,2.8a1.844,1.844,0,0,1-1.656-.708c-.234-.422.064-1.244.327-1.8.16-.335.7-.491,1.252-.847a8.145,8.145,0,0,1-2.028-1.3,6.538,6.538,0,0,1-.765-2.043,7.523,7.523,0,0,1,2.273-.52c.624.05,1.207.618,1.645.865a10.138,10.138,0,0,1,2.043-2.081c.278-.159,1.132.69,1.723,1.078Z" transform="translate(-37.794 1303.501)" fill="#0f1027"/>
        <path id="Trazado_174126" data-name="Trazado 174126" d="M100.51-1329.47c-.687.421-1.7,1.352-1.994,1.163a6.163,6.163,0,0,1-1.454-2l-3.023-.743.678-2.738c-.11-.076-.706-.273-.892-.664a2.366,2.366,0,0,1-.236-1.836,1.875,1.875,0,0,1,1.713-.647c1.793.848,3.482,1.919,5.209,2.91Z" transform="translate(-38.849 1351.397)" fill="#0f1027"/>
        <path id="Trazado_174127" data-name="Trazado 174127" d="M106.7-1291.945l-2.05,1.269a7.061,7.061,0,0,1-1.063-2.318c-.133-2.7-.123-5.406,0-8.1a6.793,6.793,0,0,1,.973-2.2l2.144,1.109Z" transform="translate(-45.044 1330.57)" fill="#0f1027"/>
        <path id="Trazado_174128" data-name="Trazado 174128" d="M-46.409-1354.315v25.358c1.186-.7,2.153-1.26,3.114-1.831q7.9-4.694,15.8-9.391c.38-.225.766-.442,1.145-.669.925-.556,1.825-.679,2.451.377.647,1.093-.018,1.779-.91,2.307q-5.3,3.136-10.6,6.259c-3.041,1.8-6.08,3.6-9.088,5.382.015.206-.022.389.04.434.87.639,2,1.253,1.237,2.547-.806,1.372-1.884.58-2.975.194-2.721-.961-3.509-2.723-3.445-5.605.2-9.164.109-18.335.042-27.5a3.176,3.176,0,0,1,1.929-3.26q13.47-7.141,26.842-14.464c1.264-.69,2.235-.887,3.386.174a11.571,11.571,0,0,0,2.438,1.442c1.006.54,1.783,1.38,1,2.375-.363.464-1.6.285-2.44.315-.272.01-.553-.242-1.073-.489-.041.818-.1,1.467-.1,2.116q-.011,9.01,0,18.02c0,.442.157.983-.04,1.307a14.2,14.2,0,0,1-1.509,1.805c-.494-.6-1.387-1.182-1.416-1.8-.147-3.155-.07-6.32-.071-9.481,0-4.022,0-8.044,0-12.422l-23.426,12.63c.29,1.234.928,2.379.6,3.075C-43.738-1354.579-45.2-1354.608-46.409-1354.315Z" transform="translate(49.654 1374.75)" fill="#0f1027"/>
        <path id="Trazado_174129" data-name="Trazado 174129" d="M18.834-1299.668a22.462,22.462,0,0,1,2.345,1.165,2.944,2.944,0,0,0,3.618.038,2.825,2.825,0,0,1,1.535-.637,2.011,2.011,0,0,1,1.5.786,1.9,1.9,0,0,1-.235,1.661,3.49,3.49,0,0,1-1.59.949,2.006,2.006,0,0,0-1.522,2.426,3,3,0,0,1-.1,1.671,2.019,2.019,0,0,1-1.275,1.092c-.468.033-1.048-.482-1.444-.889a1.4,1.4,0,0,1-.181-1.082c.384-1.967-.517-3.061-2.3-3.657a2.319,2.319,0,0,1-1.254-.775,2.42,2.42,0,0,1-.275-1.7C17.775-1299.049,18.413-1299.321,18.834-1299.668Z" transform="translate(8.074 1328.324)" fill="#0f1027"/>
        <path id="Trazado_174130" data-name="Trazado 174130" d="M20.809-1218.672l2.346-2.416,1.992,2.169-.362.355c.117.023.264.1.347.061,1.233-.648,2.57-.95,3.227.559.644,1.479-.934,1.719-1.777,2.4-3.123,2.514-5.667.482-8.216-1.038a1.989,1.989,0,0,1-.463-1.906c.219-.429,1.211-.612,1.866-.62A1.963,1.963,0,0,1,20.809-1218.672Z" transform="translate(7.935 1279.735)" fill="#0f1027"/>
        <path id="Trazado_174131" data-name="Trazado 174131" d="M54.871-1310.4a6.322,6.322,0,0,1-.609-1.793c-.018-.551.183-1.417.568-1.625,3.054-1.646,6.154-3.213,9.3-4.673a1.846,1.846,0,0,1,1.717.584c.255.431.1,1.621-.244,1.807-3.154,1.715-6.386,3.286-9.6,4.891a1.173,1.173,0,0,1-.374.049Z" transform="translate(-14.601 1339.995)" fill="#0f1027"/>
        <path id="Trazado_174132" data-name="Trazado 174132" d="M65.869-1234.156a4.882,4.882,0,0,1-1.168,1.167c-2.732,1.448-5.475,2.886-8.3,4.145a2.415,2.415,0,0,1-2.247-.432c-.691-.892-.11-1.746.9-2.248,2.77-1.375,5.51-2.809,8.3-4.152C64.751-1236.348,65.85-1235.8,65.869-1234.156Z" transform="translate(-14.351 1288.928)" fill="#0f1027"/>
        <path id="Trazado_174133" data-name="Trazado 174133" d="M30.537-1258.594c0,1.449-.008,2.9,0,4.348.008,1.066-.32,2.078-1.514,1.856a2.37,2.37,0,0,1-1.45-1.73c-.152-3.017-.074-6.045-.067-9.07,0-1.1.543-2.009,1.652-1.762a2.506,2.506,0,0,1,1.314,1.829A34.228,34.228,0,0,1,30.537-1258.594Z" transform="translate(1.958 1306.883)" fill="#0f1027"/>
        <path id="Trazado_174134" data-name="Trazado 174134" d="M45.505-1285.155c2.031,1.263,3.969,2.4,5.8,3.685a1.7,1.7,0,0,1-.056,1.641,2.032,2.032,0,0,1-1.794.469,34.917,34.917,0,0,1-4.9-2.793,2.027,2.027,0,0,1-.477-1.769C44.189-1284.376,44.919-1284.679,45.505-1285.155Z" transform="translate(-8.281 1319.35)" fill="#0f1027"/>
        <path id="Trazado_174135" data-name="Trazado 174135" d="M75.441-1266.441a1.562,1.562,0,0,1-2.2,1.478,43.01,43.01,0,0,1-4.882-2.829,1.825,1.825,0,0,1-.47-1.731c.32-.484,1.362-1.013,1.775-.823a49.822,49.822,0,0,1,5.243,2.937C75.221-1267.216,75.319-1266.675,75.441-1266.441Z" transform="translate(-22.978 1310.217)" fill="#0f1027"/>
        <path id="Trazado_174136" data-name="Trazado 174136" d="M50.2-1362.851c1.827,1.194,3.612,2.308,5.316,3.537.216.156.179,1.041-.055,1.346-.292.382-1.076.843-1.362.7a50.026,50.026,0,0,1-5.159-2.987c-.254-.168-.209-1.069-.03-1.524C49.054-1362.159,49.6-1362.383,50.2-1362.851Z" transform="translate(-11.197 1367.392)" fill="#0f1027"/>
        <path id="Trazado_174137" data-name="Trazado 174137" d="M-20.741-1318.559c-.9.333-1.783,1.01-2.367.81a19.5,19.5,0,0,1-4.333-2.23,1.913,1.913,0,0,1-.558-1.75c.166-.452,1.185-1.041,1.555-.892a41.416,41.416,0,0,1,4.851,2.453C-21.284-1319.993-21.19-1319.439-20.741-1318.559Z" transform="translate(36.294 1342.531)" fill="#0f1027"/>
        <path id="Trazado_174138" data-name="Trazado 174138" d="M2.13-1224.23c-.786.38-1.632,1.147-2.131.965a23.407,23.407,0,0,1-4.652-2.406A1.95,1.95,0,0,1-5-1227.463a1.669,1.669,0,0,1,1.479-.736,45.526,45.526,0,0,1,4.833,2.472C1.622-1225.547,1.724-1225,2.13-1224.23Z" transform="translate(22.093 1284.149)" fill="#0f1027"/>
        <path id="Trazado_174139" data-name="Trazado 174139" d="M72.484-1350.306c1.8,1.1,3.546,2.083,5.172,3.241.285.2.246,1.24,0,1.693a1.555,1.555,0,0,1-1.427.548,43.126,43.126,0,0,1-4.9-2.8c-.3-.2-.361-1.1-.188-1.539S71.916-1349.85,72.484-1350.306Z" transform="translate(-24.979 1359.635)" fill="#0f1027"/>
        <path id="Trazado_174140" data-name="Trazado 174140" d="M-27.424-1241.812c2.526,1.416,4.3,2.327,5.951,3.414a1.707,1.707,0,0,1,.038,1.659,2.005,2.005,0,0,1-1.764.536,25.867,25.867,0,0,1-4.323-2.25,2.076,2.076,0,0,1-.577-1.614A5.832,5.832,0,0,1-27.424-1241.812Z" transform="translate(36.327 1292.549)" fill="#0f1027"/>
        <path id="Trazado_174141" data-name="Trazado 174141" d="M-3.955-1311.764c1.817,1.007,3.548,1.88,5.16,2.935.308.2.376,1.258.133,1.673a1.743,1.743,0,0,1-1.531.69A33.892,33.892,0,0,1-4.99-1309c-.326-.207-.4-1.169-.238-1.674C-5.1-1311.1-4.458-1311.36-3.955-1311.764Z" transform="translate(22.234 1335.803)" fill="#0f1027"/>
      </g>
    </g>
  </g>
</svg>
