<svg xmlns="http://www.w3.org/2000/svg" width="64.681" height="64.825" viewBox="0 0 64.681 64.825">
  <g id="FH4JCn" transform="translate(569.784 1314.692)">
    <g id="Grupo_124254" data-name="Grupo 124254" transform="translate(-569.784 -1314.692)">
      <path id="Trazado_174151" data-name="Trazado 174151" d="M-505.113-1282.513c0,9.044.021,18.088-.006,27.132-.014,4.534-.937,5.491-5.419,5.5q-26.947.035-53.895,0c-4.31-.005-5.319-1-5.326-5.224q-.041-27.132-.013-54.263c.005-4.306,1-5.294,5.248-5.3q27.126-.035,54.252-.011c4.05,0,5.114,1.008,5.139,5.039C-505.078-1300.6-505.116-1291.557-505.113-1282.513Zm-44.285-30.044c-5.45,0-10.647-.072-15.836.077-.787.023-2.2,1.054-2.217,1.651-.169,5.74-.1,11.486-.1,17.148h13.75c-.735-3.9,1.825-4.555,4.4-4.89Zm42.112,18.957c0-5.748.071-11.3-.088-16.844a2.821,2.821,0,0,0-1.9-1.992c-5.3-.166-10.615-.092-16.032-.092v14.335c4-.768,4.4,1.957,4.663,4.593Zm-20.786-4.751v-13.981H-546.69v14.275c4.213-1.107,4.188,2.1,4.764,4.367h9.489C-533.012-1297.277-531.239-1298.5-528.073-1298.351Zm-39.429,26.115h13.589c-.443-3.547,1.254-4.989,4.546-4.757v-9.554c-3.519.342-4.785-1.579-4.74-4.46h-13.4Zm-.107,2.529c0,5.257-.093,10.333.1,15.4a3.085,3.085,0,0,0,2.078,2.175c5.291.19,10.592.1,15.995.1v-13.044l-1.1.719-4.857-5.349Zm46.572-21.376c.5,2.865-.334,4.613-3.412,4.516-.346-.011-1.013.971-1.035,1.513-.108,2.682-.049,5.369-.049,8.266,3.975-.639,4.7,1.635,4.782,4.505h13.283v-18.8Zm13.765,21.35h-13.576c.435,3.485-1.585,4.666-4.483,4.759v12.96c5.41,0,10.6.107,15.782-.114a3.363,3.363,0,0,0,2.175-2.432C-507.162-1259.509-507.272-1264.474-507.272-1269.732Zm-25.3.024h-9.672c.5,3.545-1.53,4.678-4.364,4.7v12.789h18.509v-13.041C-531.593-1264.828-532.769-1266.67-532.567-1269.708Zm4.56-16.891c-3.712.524-4.672-1.679-4.759-4.411h-9.567c.675,3.792-1.813,4.358-4.369,4.665v9.554c4-.844,4.369,1.953,4.739,4.469h9.542c-.6-3.631,1.384-4.69,4.414-4.675Zm4.6-2.383v-6.806H-530v6.806Zm-21.287,14.858c-6.879-1.527-7.787-.637-6.537,6.4h6.537Zm21.391,6.416v-6.674h-6.788v6.674Zm-21.432-21.337v-6.673h-6.7v6.673Z" transform="translate(569.784 1314.692)" fill="#0f1027"/>
    </g>
  </g>
</svg>
