<svg xmlns="http://www.w3.org/2000/svg" xmlns:xlink="http://www.w3.org/1999/xlink" width="84" height="82" viewBox="0 0 84 82">
  <defs>
    <clipPath id="clip-path">
      <rect id="Rectángulo_36023" data-name="Rectángulo 36023" width="84" height="82" transform="translate(-10095 -7694)" fill="#fff" stroke="#707070" stroke-width="1"/>
    </clipPath>
  </defs>
  <g id="Enmascarar_grupo_93" data-name="Enmascarar grupo 93" transform="translate(10095 7694)" clip-path="url(#clip-path)">
    <g id="FH4JCn" transform="translate(-9512.616 -6367.057)">
      <g id="Grupo_124254" data-name="Grupo 124254" transform="translate(-569.784 -1314.692)">
        <path id="Trazado_174151" data-name="Trazado 174151" d="M-512.424-1286.151c0,8.022.019,16.043-.005,24.065-.012,4.022-.831,4.871-4.806,4.877q-23.9.031-47.8,0c-3.823,0-4.718-.884-4.724-4.634q-.036-24.065-.011-48.129c0-3.82.888-4.7,4.655-4.7q24.06-.031,48.119-.009c3.592,0,4.536.894,4.558,4.469C-512.393-1302.194-512.426-1294.172-512.424-1286.151ZM-551.7-1312.8c-4.834,0-9.443-.064-14.046.068-.7.02-1.95.935-1.966,1.465-.15,5.091-.09,10.188-.09,15.21h12.2c-.652-3.458,1.619-4.041,3.906-4.337Zm37.351,16.814c0-5.1.063-10.022-.078-14.94a2.5,2.5,0,0,0-1.684-1.767c-4.7-.148-9.415-.082-14.22-.082v12.714c3.547-.681,3.9,1.736,4.135,4.074Zm-18.437-4.214v-12.4H-549.3v12.662c3.737-.982,3.714,1.859,4.225,3.873h8.417C-537.169-1299.245-535.6-1300.328-532.788-1300.2Zm-34.972,23.163h12.053c-.393-3.146,1.113-4.425,4.032-4.22v-8.474c-3.121.3-4.244-1.4-4.2-3.956H-567.76Zm-.1,2.244c0,4.663-.082,9.165.086,13.659a2.736,2.736,0,0,0,1.843,1.929c4.693.168,9.394.089,14.186.089v-11.569l-.976.638-4.308-4.745Zm41.308-18.96c.443,2.542-.3,4.091-3.026,4.006-.307-.01-.9.861-.918,1.342-.1,2.378-.044,4.762-.044,7.332,3.526-.567,4.171,1.45,4.242,4h11.782v-16.676Zm12.209,18.937h-12.041c.386,3.091-1.406,4.139-3.977,4.221v11.495c4.8,0,9.4.095,14-.1a2.983,2.983,0,0,0,1.929-2.157C-514.241-1265.747-514.338-1270.15-514.338-1274.815Zm-22.436.021h-8.579c.439,3.145-1.357,4.149-3.871,4.172v11.343h16.417v-11.567C-535.91-1270.464-536.953-1272.1-536.774-1274.793Zm4.045-14.982c-3.292.465-4.144-1.489-4.221-3.912h-8.486c.6,3.363-1.608,3.865-3.875,4.137v8.474c3.547-.749,3.875,1.733,4.2,3.964h8.464c-.534-3.22,1.227-4.16,3.915-4.147Zm4.076-2.114v-6.036h-5.841v6.036Zm-18.881,13.179c-6.1-1.354-6.906-.565-5.8,5.675h5.8Zm18.973,5.691v-5.919h-6.021v5.919Zm-19.009-18.925v-5.919h-5.94v5.919Z" transform="translate(569.784 1314.692)" fill="#0f1027"/>
      </g>
    </g>
  </g>
</svg>
