<svg xmlns="http://www.w3.org/2000/svg" xmlns:xlink="http://www.w3.org/1999/xlink" width="605" height="304.39" viewBox="0 0 605 304.39">
  <defs>
    <linearGradient id="linear-gradient" x1="0.5" x2="0.5" y2="1" gradientUnits="objectBoundingBox">
      <stop offset="0" stop-color="#636363"/>
      <stop offset="0.517" stop-color="#0f1027"/>
      <stop offset="1" stop-color="#0f1027"/>
    </linearGradient>
  </defs>
  <g id="Grupo_124754" data-name="Grupo 124754" transform="translate(-195 -687)">
    <rect id="Rectángulo_35976" data-name="Rectángulo 35976" width="196" height="73" rx="5" transform="translate(195 687)" fill="url(#linear-gradient)"/>
    <rect id="Rectángulo_35981" data-name="Rectángulo 35981" width="196" height="73" rx="5" transform="translate(800 991.39) rotate(180)" fill="url(#linear-gradient)"/>
    <rect id="Rectángulo_35977" data-name="Rectángulo 35977" width="196" height="73" rx="5" transform="translate(400 687)" fill="url(#linear-gradient)"/>
    <rect id="Rectángulo_35980" data-name="Rectángulo 35980" width="196" height="73" rx="5" transform="translate(595 991.39) rotate(180)" fill="url(#linear-gradient)"/>
    <rect id="Rectángulo_35978" data-name="Rectángulo 35978" width="196" height="73" rx="5" transform="translate(604 687)" fill="url(#linear-gradient)"/>
    <rect id="Rectángulo_35979" data-name="Rectángulo 35979" width="196" height="73" rx="5" transform="translate(391 991.39) rotate(180)" fill="url(#linear-gradient)"/>
    <path id="Trazado_174405" data-name="Trazado 174405" d="M13.675-5.21a5.535,5.535,0,0,1-1.864,3.975A6.546,6.546,0,0,1,7.38.215,5.886,5.886,0,0,1,2.648-1.81,8.3,8.3,0,0,1,.924-7.369v-.956A9.376,9.376,0,0,1,1.719-12.3a5.957,5.957,0,0,1,2.272-2.637,6.364,6.364,0,0,1,3.432-.918,6.376,6.376,0,0,1,4.361,1.45A5.948,5.948,0,0,1,13.7-10.334H10.474a3.266,3.266,0,0,0-.843-2.2,3.123,3.123,0,0,0-2.208-.682,2.738,2.738,0,0,0-2.412,1.155,6.472,6.472,0,0,0-.822,3.583v1.182a6.927,6.927,0,0,0,.768,3.706A2.687,2.687,0,0,0,7.38-2.417,3.182,3.182,0,0,0,9.609-3.1a3.081,3.081,0,0,0,.843-2.111ZM24.621-3.223h-5.65L17.9,0H14.47l5.822-15.641h2.986L29.133,0H25.706Zm-4.78-2.61h3.91l-1.966-5.854Zm21.237-7.2H36.287V0H33.064V-13.03H28.338v-2.61h12.74ZM46.342,0H43.119V-15.641h3.223Zm12.01-3.223H52.7L51.627,0H48.2l5.822-15.641h2.986L62.863,0H59.437Zm-4.78-2.61h3.91l-1.966-5.854ZM64.926,3.921,63.3,3.072l.387-.7a5.581,5.581,0,0,0,.741-2.61V-2.643h2.621L67.042-.494a5.581,5.581,0,0,1-.6,2.406A6.169,6.169,0,0,1,64.926,3.921ZM78.4-5.511V0H75.174V-15.641h6.1a7.059,7.059,0,0,1,3.1.645,4.75,4.75,0,0,1,2.057,1.832,5.107,5.107,0,0,1,.72,2.7,4.491,4.491,0,0,1-1.574,3.625,6.555,6.555,0,0,1-4.356,1.327Zm0-2.61h2.879a2.831,2.831,0,0,0,1.95-.6,2.188,2.188,0,0,0,.671-1.719A2.58,2.58,0,0,0,83.22-12.3a2.528,2.528,0,0,0-1.869-.73H78.4Zm17.295-.591A8.434,8.434,0,0,0,94.574-8.8a2.274,2.274,0,0,0-2.31,1.192V0h-3.1V-11.623h2.933l.086,1.386a2.877,2.877,0,0,1,2.589-1.6,3.253,3.253,0,0,1,.967.14Zm.623,2.793A6.893,6.893,0,0,1,96.98-9,4.876,4.876,0,0,1,98.9-11.1a5.594,5.594,0,0,1,2.906-.741,5.293,5.293,0,0,1,3.84,1.439,5.777,5.777,0,0,1,1.66,3.91l.021.795A6.075,6.075,0,0,1,105.832-1.4,5.19,5.19,0,0,1,101.825.215,5.216,5.216,0,0,1,97.813-1.4a6.182,6.182,0,0,1-1.5-4.383Zm3.1.22a4.345,4.345,0,0,0,.623,2.534,2.055,2.055,0,0,0,1.783.877,2.06,2.06,0,0,0,1.762-.866,4.754,4.754,0,0,0,.634-2.77,4.3,4.3,0,0,0-.634-2.518,2.06,2.06,0,0,0-1.783-.893,2.027,2.027,0,0,0-1.762.888A4.834,4.834,0,0,0,99.419-5.7Z" transform="translate(241.5 731.5)" fill="#fff"/>
    <path id="Trazado_174408" data-name="Trazado 174408" d="M4.823,0H1.6V-15.641H4.823ZM20.185-1.977A5.594,5.594,0,0,1,17.725-.36,10.3,10.3,0,0,1,14.2.215,6.98,6.98,0,0,1,10.64-.671,5.911,5.911,0,0,1,8.277-3.244a9.055,9.055,0,0,1-.854-3.964V-8.271a9.616,9.616,0,0,1,.79-4.055,5.841,5.841,0,0,1,2.277-2.621,6.56,6.56,0,0,1,3.486-.908,6.533,6.533,0,0,1,4.351,1.327,5.67,5.67,0,0,1,1.858,3.862H17.048a3.119,3.119,0,0,0-.951-1.966,3.036,3.036,0,0,0-2.025-.623,2.858,2.858,0,0,0-2.5,1.235,6.5,6.5,0,0,0-.87,3.674v1a6.184,6.184,0,0,0,.935,3.717,3.2,3.2,0,0,0,2.739,1.257,3.575,3.575,0,0,0,2.589-.773v-2.7H14.029V-8.218h6.155ZM32.205-6.8H26.018v4.211h7.262V0H22.795V-15.641H33.258v2.61h-7.24V-9.3h6.188ZM43.28-4.1a1.654,1.654,0,0,0-.645-1.4,8.454,8.454,0,0,0-2.32-1.031,16.448,16.448,0,0,1-2.653-1.069A4.335,4.335,0,0,1,35-11.483a3.777,3.777,0,0,1,.714-2.261A4.66,4.66,0,0,1,37.764-15.3a7.723,7.723,0,0,1,3-.559,7.029,7.029,0,0,1,2.986.607,4.755,4.755,0,0,1,2.036,1.713,4.483,4.483,0,0,1,.725,2.514H43.291a2.109,2.109,0,0,0-.677-1.67,2.782,2.782,0,0,0-1.9-.6,2.972,2.972,0,0,0-1.837.5,1.576,1.576,0,0,0-.655,1.316,1.509,1.509,0,0,0,.768,1.278,8.678,8.678,0,0,0,2.261.967,9.77,9.77,0,0,1,4.007,2.052,4.086,4.086,0,0,1,1.257,3.051A3.764,3.764,0,0,1,44.978-.94,6.725,6.725,0,0,1,40.842.215a7.986,7.986,0,0,1-3.287-.661,5.2,5.2,0,0,1-2.261-1.81,4.635,4.635,0,0,1-.779-2.664h3.233q0,2.589,3.094,2.589A3.01,3.01,0,0,0,42.636-2.8,1.52,1.52,0,0,0,43.28-4.1Z" transform="translate(273.5 963.337)" fill="#fff"/>
    <path id="Trazado_174404" data-name="Trazado 174404" d="M-52.32-6.8h-6.187v4.211h7.262V0H-61.73V-15.641h10.463v2.61h-7.24V-9.3h6.188ZM-36.636,0h-3.223l-6.273-10.291V0h-3.223V-15.641h3.223l6.284,10.313V-15.641h3.212Zm15.189-1.977A5.594,5.594,0,0,1-23.907-.36,10.3,10.3,0,0,1-27.43.215a6.98,6.98,0,0,1-3.561-.886,5.911,5.911,0,0,1-2.363-2.573,9.055,9.055,0,0,1-.854-3.964V-8.271a9.616,9.616,0,0,1,.79-4.055,5.841,5.841,0,0,1,2.277-2.621,6.56,6.56,0,0,1,3.486-.908,6.533,6.533,0,0,1,4.351,1.327,5.67,5.67,0,0,1,1.858,3.862h-3.137a3.119,3.119,0,0,0-.951-1.966,3.036,3.036,0,0,0-2.025-.623,2.858,2.858,0,0,0-2.5,1.235,6.5,6.5,0,0,0-.87,3.674v1A6.184,6.184,0,0,0-30-3.631a3.2,3.2,0,0,0,2.739,1.257,3.575,3.575,0,0,0,2.589-.773v-2.7H-27.6V-8.218h6.155ZM-15.41,0h-3.223V-15.641h3.223ZM.3,0H-2.927L-9.2-10.291V0h-3.223V-15.641H-9.2L-2.917-5.328V-15.641H.3ZM12.52-6.8H6.333v4.211h7.262V0H3.11V-15.641H13.573v2.61H6.333V-9.3H12.52ZM24.9-6.8H18.708v4.211h7.262V0H15.485V-15.641H25.948v2.61h-7.24V-9.3H24.9ZM33.65-5.726H31.083V0H27.86V-15.641h5.812a6.57,6.57,0,0,1,4.275,1.235,4.264,4.264,0,0,1,1.5,3.491,4.812,4.812,0,0,1-.693,2.669,4.725,4.725,0,0,1-2.1,1.7L40.042-.15V0H36.583Zm-2.567-2.61h2.6a2.662,2.662,0,0,0,1.88-.618,2.208,2.208,0,0,0,.666-1.7A2.363,2.363,0,0,0,35.6-12.4a2.612,2.612,0,0,0-1.928-.634H31.083Zm10.345.5a8.339,8.339,0,0,1,1-4.028,7.521,7.521,0,0,1,2.782-2.927,7.322,7.322,0,0,1,3.84-1.069,7.322,7.322,0,0,1,3.84,1.069,7.521,7.521,0,0,1,2.782,2.927,8.339,8.339,0,0,1,1,4.028,8.307,8.307,0,0,1-1.021,4.055A7.614,7.614,0,0,1,52.873-.849,7.275,7.275,0,0,1,49.054.215a7.258,7.258,0,0,1-3.84-1.074,7.624,7.624,0,0,1-2.777-2.933A8.325,8.325,0,0,1,41.427-7.831ZM55.36-7.836a7.018,7.018,0,0,0-.806-3.317A6.3,6.3,0,0,0,52.277-13.6a5.966,5.966,0,0,0-3.223-.919,6.051,6.051,0,0,0-3.174.882,6.243,6.243,0,0,0-2.3,2.43,6.979,6.979,0,0,0-.838,3.376,7.014,7.014,0,0,0,.833,3.376,6.323,6.323,0,0,0,2.3,2.446,5.988,5.988,0,0,0,3.185.9,5.963,5.963,0,0,0,3.2-.914,6.3,6.3,0,0,0,2.293-2.462A7.06,7.06,0,0,0,55.36-7.836Zm-7.853.822v3.62H45.885v-9.131H48.9a4.029,4.029,0,0,1,2.557.736A2.5,2.5,0,0,1,52.4-9.7a2.055,2.055,0,0,1-1.214,1.869A1.9,1.9,0,0,1,52.1-6.9a3.659,3.659,0,0,1,.263,1.477q0,.881.038,1.246a2.079,2.079,0,0,0,.145.612v.172H50.88a8.548,8.548,0,0,1-.14-2.084,1.633,1.633,0,0,0-.354-1.176,1.614,1.614,0,0,0-1.182-.36Zm0-1.439h1.461A2.29,2.29,0,0,0,50.273-8.8a1.045,1.045,0,0,0,.51-.9,1.32,1.32,0,0,0-.381-1.069,2.264,2.264,0,0,0-1.38-.328H47.507ZM59.753,3.921l-1.622-.849.387-.7a5.582,5.582,0,0,0,.741-2.61V-2.643H61.88L61.87-.494a5.581,5.581,0,0,1-.6,2.406A6.169,6.169,0,0,1,59.753,3.921ZM-55.349,20.9a1.654,1.654,0,0,0-.645-1.4,8.454,8.454,0,0,0-2.32-1.031,16.449,16.449,0,0,1-2.653-1.069,4.335,4.335,0,0,1-2.664-3.878,3.777,3.777,0,0,1,.714-2.261A4.66,4.66,0,0,1-60.865,9.7a7.723,7.723,0,0,1,3-.559,7.029,7.029,0,0,1,2.986.607,4.755,4.755,0,0,1,2.036,1.713,4.483,4.483,0,0,1,.725,2.514h-3.223a2.109,2.109,0,0,0-.677-1.67,2.782,2.782,0,0,0-1.9-.6,2.972,2.972,0,0,0-1.837.5,1.576,1.576,0,0,0-.655,1.316,1.509,1.509,0,0,0,.768,1.278,8.678,8.678,0,0,0,2.261.967,9.77,9.77,0,0,1,4.007,2.052,4.086,4.086,0,0,1,1.257,3.051,3.764,3.764,0,0,1-1.536,3.185,6.725,6.725,0,0,1-4.136,1.155,7.986,7.986,0,0,1-3.287-.661,5.2,5.2,0,0,1-2.261-1.81,4.635,4.635,0,0,1-.779-2.664h3.233q0,2.589,3.094,2.589a3.01,3.01,0,0,0,1.794-.467A1.52,1.52,0,0,0-55.349,20.9Zm4.727-1.815A6.893,6.893,0,0,1-49.957,16,4.876,4.876,0,0,1-48.039,13.9a5.594,5.594,0,0,1,2.906-.741,5.293,5.293,0,0,1,3.84,1.439,5.777,5.777,0,0,1,1.66,3.91l.021.795A6.075,6.075,0,0,1-41.1,23.6a5.19,5.19,0,0,1-4.007,1.617A5.216,5.216,0,0,1-49.124,23.6a6.182,6.182,0,0,1-1.5-4.383Zm3.1.22a4.345,4.345,0,0,0,.623,2.534,2.055,2.055,0,0,0,1.783.877,2.06,2.06,0,0,0,1.762-.866,4.754,4.754,0,0,0,.634-2.77,4.3,4.3,0,0,0-.634-2.518,2.06,2.06,0,0,0-1.783-.893,2.027,2.027,0,0,0-1.762.888A4.834,4.834,0,0,0-47.518,19.3ZM-34.423,25h-3.115V8.5h3.115Zm5.833,0h-3.115V13.377h3.115Zm-3.3-14.631a1.529,1.529,0,0,1,.467-1.149,1.755,1.755,0,0,1,1.273-.451,1.759,1.759,0,0,1,1.268.451,1.52,1.52,0,0,1,.473,1.149,1.524,1.524,0,0,1-.478,1.16,1.764,1.764,0,0,1-1.262.451,1.764,1.764,0,0,1-1.262-.451A1.524,1.524,0,0,1-31.888,10.369Zm5.371,8.733A7,7,0,0,1-25.3,14.773a3.956,3.956,0,0,1,3.335-1.611,3.56,3.56,0,0,1,2.8,1.268V8.5h3.115V25h-2.8L-19,23.765a3.653,3.653,0,0,1-2.986,1.45A3.945,3.945,0,0,1-25.276,23.6,7.23,7.23,0,0,1-26.517,19.1Zm3.1.221a4.613,4.613,0,0,0,.569,2.514,1.853,1.853,0,0,0,1.654.874,2.077,2.077,0,0,0,2.03-1.219V16.884a2.047,2.047,0,0,0-2.009-1.219Q-23.413,15.665-23.413,19.323Zm22.161,1.165L.854,9.359H4.066L.6,25H-2.648L-5.194,14.537-7.74,25h-3.244l-3.47-15.641h3.212l2.116,11.107L-6.547,9.359h2.729Zm6.037-1.407A6.893,6.893,0,0,1,5.452,16,4.876,4.876,0,0,1,7.369,13.9a5.594,5.594,0,0,1,2.906-.741,5.293,5.293,0,0,1,3.84,1.439,5.777,5.777,0,0,1,1.66,3.91l.021.795A6.075,6.075,0,0,1,14.3,23.6,5.19,5.19,0,0,1,10.3,25.215,5.216,5.216,0,0,1,6.284,23.6a6.182,6.182,0,0,1-1.5-4.383Zm3.1.22a4.345,4.345,0,0,0,.623,2.534,2.055,2.055,0,0,0,1.783.877,2.06,2.06,0,0,0,1.762-.866,4.754,4.754,0,0,0,.634-2.77,4.3,4.3,0,0,0-.634-2.518,2.06,2.06,0,0,0-1.783-.893,2.027,2.027,0,0,0-1.762.888A4.834,4.834,0,0,0,7.89,19.3Zm16.35-3.013a8.434,8.434,0,0,0-1.117-.086,2.274,2.274,0,0,0-2.31,1.192V25h-3.1V13.377h2.933l.086,1.386a2.877,2.877,0,0,1,2.589-1.6,3.253,3.253,0,0,1,.967.14Zm5.715,4.05-1.117,1.117V25h-3.1V8.5h3.1v9.142l.6-.773,2.976-3.491h3.728l-4.2,4.845L36.507,25H32.941Zm13.825,1.45a1,1,0,0,0-.564-.9,6.406,6.406,0,0,0-1.81-.585q-4.146-.87-4.146-3.523A3.194,3.194,0,0,1,38.543,14.2,5.178,5.178,0,0,1,41.9,13.162a5.573,5.573,0,0,1,3.54,1.042,3.284,3.284,0,0,1,1.327,2.707h-3.1a1.5,1.5,0,0,0-.43-1.1,1.818,1.818,0,0,0-1.343-.435,1.858,1.858,0,0,0-1.214.354,1.119,1.119,0,0,0-.43.9.957.957,0,0,0,.489.833,5.028,5.028,0,0,0,1.649.548,13.468,13.468,0,0,1,1.955.521,3.212,3.212,0,0,1,2.46,3.126,3.032,3.032,0,0,1-1.364,2.573,5.885,5.885,0,0,1-3.523.983,6.147,6.147,0,0,1-2.594-.521,4.353,4.353,0,0,1-1.778-1.429,3.32,3.32,0,0,1-.645-1.96h2.943a1.621,1.621,0,0,0,.612,1.268,2.429,2.429,0,0,0,1.525.44,2.248,2.248,0,0,0,1.348-.338A1.053,1.053,0,0,0,43.78,21.788Zm4.748-4.619a8.339,8.339,0,0,1,1-4.028,7.521,7.521,0,0,1,2.782-2.927,7.434,7.434,0,0,1,7.681,0,7.521,7.521,0,0,1,2.782,2.927,8.574,8.574,0,0,1-.016,8.083,7.614,7.614,0,0,1-2.788,2.927,7.4,7.4,0,0,1-7.659-.011,7.624,7.624,0,0,1-2.777-2.933A8.325,8.325,0,0,1,48.528,17.169Zm13.933-.005a7.018,7.018,0,0,0-.806-3.317A6.3,6.3,0,0,0,59.377,11.4a5.966,5.966,0,0,0-3.223-.919,6.051,6.051,0,0,0-3.174.882,6.243,6.243,0,0,0-2.3,2.43,7.24,7.24,0,0,0-.005,6.752,6.323,6.323,0,0,0,2.3,2.446,6.072,6.072,0,0,0,6.381-.016,6.3,6.3,0,0,0,2.293-2.462A7.06,7.06,0,0,0,62.46,17.164Zm-7.853.822v3.62H52.986V12.475H56a4.029,4.029,0,0,1,2.557.736A2.5,2.5,0,0,1,59.5,15.3a2.055,2.055,0,0,1-1.214,1.869,1.9,1.9,0,0,1,.918.929,3.659,3.659,0,0,1,.263,1.477q0,.881.038,1.246a2.079,2.079,0,0,0,.145.612v.172H57.981a8.548,8.548,0,0,1-.14-2.084,1.633,1.633,0,0,0-.354-1.176,1.614,1.614,0,0,0-1.182-.36Zm0-1.439h1.461a2.29,2.29,0,0,0,1.305-.344,1.045,1.045,0,0,0,.51-.9,1.32,1.32,0,0,0-.381-1.069,2.264,2.264,0,0,0-1.38-.328H54.608Z" transform="translate(499.5 719.5)" fill="#fff"/>
    <path id="Trazado_174409" data-name="Trazado 174409" d="M-49.178,0H-52.4V-15.641h3.223Zm11.1-4.1a1.654,1.654,0,0,0-.645-1.4,8.454,8.454,0,0,0-2.32-1.031A16.448,16.448,0,0,1-43.7-7.605a4.335,4.335,0,0,1-2.664-3.878,3.777,3.777,0,0,1,.714-2.261A4.66,4.66,0,0,1-43.6-15.3a7.723,7.723,0,0,1,3-.559,7.029,7.029,0,0,1,2.986.607,4.755,4.755,0,0,1,2.036,1.713,4.483,4.483,0,0,1,.725,2.514H-38.07a2.109,2.109,0,0,0-.677-1.67,2.782,2.782,0,0,0-1.9-.6,2.972,2.972,0,0,0-1.837.5,1.576,1.576,0,0,0-.655,1.316,1.509,1.509,0,0,0,.768,1.278,8.678,8.678,0,0,0,2.261.967A9.77,9.77,0,0,1-36.1-7.176a4.086,4.086,0,0,1,1.257,3.051A3.764,3.764,0,0,1-36.384-.94,6.725,6.725,0,0,1-40.52.215a7.986,7.986,0,0,1-3.287-.661,5.2,5.2,0,0,1-2.261-1.81,4.635,4.635,0,0,1-.779-2.664h3.233q0,2.589,3.094,2.589A3.01,3.01,0,0,0-38.726-2.8,1.52,1.52,0,0,0-38.081-4.1Zm18.262-3.362a9.442,9.442,0,0,1-.816,4.05A6.148,6.148,0,0,1-22.972-.73a6.463,6.463,0,0,1-3.486.945,6.507,6.507,0,0,1-3.47-.935,6.209,6.209,0,0,1-2.363-2.669A9.172,9.172,0,0,1-33.14-7.38v-.773a9.392,9.392,0,0,1,.833-4.066,6.2,6.2,0,0,1,2.353-2.7,6.471,6.471,0,0,1,3.475-.94,6.471,6.471,0,0,1,3.475.94,6.2,6.2,0,0,1,2.353,2.7,9.366,9.366,0,0,1,.833,4.055Zm-3.266-.709a6.582,6.582,0,0,0-.881-3.738,2.871,2.871,0,0,0-2.514-1.278,2.872,2.872,0,0,0-2.5,1.262,6.507,6.507,0,0,0-.892,3.7v.763a6.664,6.664,0,0,0,.881,3.717,2.863,2.863,0,0,0,2.535,1.321A2.837,2.837,0,0,0-23.966-3.7a6.626,6.626,0,0,0,.881-3.711Zm11.859,9.518h-2.31l5.758-16.983h2.31ZM9.808-4.1a1.654,1.654,0,0,0-.645-1.4,8.454,8.454,0,0,0-2.32-1.031A16.448,16.448,0,0,1,4.189-7.605a4.335,4.335,0,0,1-2.664-3.878,3.777,3.777,0,0,1,.714-2.261A4.66,4.66,0,0,1,4.292-15.3a7.723,7.723,0,0,1,3-.559,7.029,7.029,0,0,1,2.986.607,4.755,4.755,0,0,1,2.036,1.713,4.483,4.483,0,0,1,.725,2.514H9.818a2.109,2.109,0,0,0-.677-1.67,2.782,2.782,0,0,0-1.9-.6,2.972,2.972,0,0,0-1.837.5,1.576,1.576,0,0,0-.655,1.316,1.509,1.509,0,0,0,.768,1.278,8.677,8.677,0,0,0,2.261.967,9.77,9.77,0,0,1,4.007,2.052,4.086,4.086,0,0,1,1.257,3.051A3.764,3.764,0,0,1,11.5-.94,6.725,6.725,0,0,1,7.369.215,7.986,7.986,0,0,1,4.082-.446a5.2,5.2,0,0,1-2.261-1.81A4.635,4.635,0,0,1,1.042-4.92H4.275q0,2.589,3.094,2.589A3.01,3.01,0,0,0,9.163-2.8,1.52,1.52,0,0,0,9.808-4.1ZM27-13.03H22.2V0H18.981V-13.03H14.255v-2.61H27ZM38.242-6.8H32.055v4.211h7.262V0H28.832V-15.641H39.295v2.61h-7.24V-9.3h6.188ZM44.43-5.511V0H41.207V-15.641h6.1a7.059,7.059,0,0,1,3.1.645,4.75,4.75,0,0,1,2.057,1.832,5.107,5.107,0,0,1,.72,2.7,4.491,4.491,0,0,1-1.574,3.625,6.555,6.555,0,0,1-4.356,1.327Zm0-2.61h2.879a2.831,2.831,0,0,0,1.95-.6,2.188,2.188,0,0,0,.671-1.719,2.58,2.58,0,0,0-.677-1.858,2.528,2.528,0,0,0-1.869-.73H44.43Z" transform="translate(499.5 963.337)" fill="#fff"/>
    <path id="Trazado_174406" data-name="Trazado 174406" d="M-39.461-3.223h-5.65L-46.186,0h-3.427l5.822-15.641H-40.8L-34.95,0h-3.427Zm-4.78-2.61h3.91L-42.3-11.687ZM-26.85-1.182a3.893,3.893,0,0,1-3.18,1.4A3.672,3.672,0,0,1-32.882-.859a4.586,4.586,0,0,1-1-3.147v-7.616h3.1v7.518q0,1.817,1.654,1.817a2.242,2.242,0,0,0,2.17-1.1v-8.238h3.115V0h-2.922Zm9.066-13.3v2.857H-15.8v2.277h-1.987v5.8a1.385,1.385,0,0,0,.247.924,1.241,1.241,0,0,0,.945.279,4.951,4.951,0,0,0,.913-.075V-.064a6.391,6.391,0,0,1-1.88.279q-3.266,0-3.33-3.3V-9.346h-1.7v-2.277h1.7V-14.48Zm2.911,8.562A6.893,6.893,0,0,1-14.207-9,4.876,4.876,0,0,1-12.289-11.1a5.594,5.594,0,0,1,2.906-.741A5.293,5.293,0,0,1-5.543-10.4a5.777,5.777,0,0,1,1.66,3.91l.021.795A6.075,6.075,0,0,1-5.355-1.4,5.19,5.19,0,0,1-9.362.215,5.216,5.216,0,0,1-13.374-1.4a6.182,6.182,0,0,1-1.5-4.383Zm3.1.22a4.345,4.345,0,0,0,.623,2.534,2.055,2.055,0,0,0,1.783.877A2.06,2.06,0,0,0-7.6-3.154a4.754,4.754,0,0,0,.634-2.77A4.3,4.3,0,0,0-7.6-8.442a2.06,2.06,0,0,0-1.783-.893,2.027,2.027,0,0,0-1.762.888A4.834,4.834,0,0,0-11.768-5.7Zm9.335-.2a7,7,0,0,1,1.219-4.329,3.956,3.956,0,0,1,3.335-1.611,3.56,3.56,0,0,1,2.8,1.268V-16.5H8.041V0h-2.8l-.15-1.235A3.653,3.653,0,0,1,2.1.215,3.945,3.945,0,0,1-1.192-1.4,7.23,7.23,0,0,1-2.433-5.9Zm3.1.221a4.613,4.613,0,0,0,.569,2.514A1.853,1.853,0,0,0,2.9-2.288a2.077,2.077,0,0,0,2.03-1.219V-8.116A2.047,2.047,0,0,0,2.917-9.335Q.671-9.335.671-5.677ZM15.8.215a5.706,5.706,0,0,1-4.163-1.568,5.575,5.575,0,0,1-1.606-4.179v-.3A7.021,7.021,0,0,1,10.7-8.964a4.967,4.967,0,0,1,1.917-2.127,5.382,5.382,0,0,1,2.831-.747,4.824,4.824,0,0,1,3.754,1.5,6.111,6.111,0,0,1,1.37,4.265V-4.8h-7.4a2.884,2.884,0,0,0,.908,1.826A2.744,2.744,0,0,0,16-2.288a3.351,3.351,0,0,0,2.8-1.3L20.33-1.88A4.66,4.66,0,0,1,18.439-.338,6.2,6.2,0,0,1,15.8.215Zm-.354-9.55a1.94,1.94,0,0,0-1.5.626,3.241,3.241,0,0,0-.736,1.791h4.318v-.248a2.311,2.311,0,0,0-.559-1.6A2,2,0,0,0,15.442-9.335ZM28.633-3.212a1,1,0,0,0-.564-.9,6.406,6.406,0,0,0-1.81-.585q-4.146-.87-4.146-3.523A3.194,3.194,0,0,1,23.4-10.8a5.178,5.178,0,0,1,3.357-1.037,5.573,5.573,0,0,1,3.54,1.042A3.284,3.284,0,0,1,31.62-8.089h-3.1a1.5,1.5,0,0,0-.43-1.1,1.818,1.818,0,0,0-1.343-.435,1.858,1.858,0,0,0-1.214.354,1.119,1.119,0,0,0-.43.9.957.957,0,0,0,.489.833,5.028,5.028,0,0,0,1.649.548,13.468,13.468,0,0,1,1.955.521,3.212,3.212,0,0,1,2.46,3.126A3.032,3.032,0,0,1,30.288-.768a5.885,5.885,0,0,1-3.523.983A6.147,6.147,0,0,1,24.17-.306a4.353,4.353,0,0,1-1.778-1.429,3.32,3.32,0,0,1-.645-1.96h2.943A1.621,1.621,0,0,0,25.3-2.428a2.429,2.429,0,0,0,1.525.44,2.248,2.248,0,0,0,1.348-.338A1.053,1.053,0,0,0,28.633-3.212Zm9.238-1.45L36.754-3.545V0h-3.1V-16.5h3.1v9.142l.6-.773,2.976-3.491h3.728l-4.2,4.845L44.424,0H40.858ZM-44.553,25h-3.223V9.359h3.223Zm5.64-11.623.1,1.343a4.058,4.058,0,0,1,3.341-1.558,3.372,3.372,0,0,1,2.75,1.085,5.062,5.062,0,0,1,.924,3.244V25h-3.1V17.549a2.022,2.022,0,0,0-.43-1.437,1.921,1.921,0,0,0-1.429-.447,2.135,2.135,0,0,0-1.966,1.12V25h-3.1V13.377ZM-25.1,21.208l2.159-7.831H-19.7L-23.617,25h-2.965L-30.5,13.377h3.244Zm11.978,4.007a5.706,5.706,0,0,1-4.163-1.568,5.575,5.575,0,0,1-1.606-4.179v-.3a7.021,7.021,0,0,1,.677-3.131A4.967,4.967,0,0,1-16.3,13.909a5.382,5.382,0,0,1,2.831-.747,4.824,4.824,0,0,1,3.754,1.5,6.111,6.111,0,0,1,1.37,4.265V20.2h-7.4a2.884,2.884,0,0,0,.908,1.826,2.744,2.744,0,0,0,1.917.688,3.351,3.351,0,0,0,2.8-1.3l1.525,1.708a4.66,4.66,0,0,1-1.891,1.542A6.2,6.2,0,0,1-13.122,25.215Zm-.354-9.55a1.94,1.94,0,0,0-1.5.626,3.241,3.241,0,0,0-.736,1.791h4.318v-.248a2.311,2.311,0,0,0-.559-1.6A2,2,0,0,0-13.476,15.665Zm9.754-2.288.1,1.343A4.058,4.058,0,0,1-.285,13.162a3.372,3.372,0,0,1,2.75,1.085,5.062,5.062,0,0,1,.924,3.244V25H.285V17.549a2.022,2.022,0,0,0-.43-1.437,1.921,1.921,0,0,0-1.429-.447,2.135,2.135,0,0,0-1.966,1.12V25h-3.1V13.377ZM9.458,10.52v2.857h1.987v2.277H9.458v5.8a1.385,1.385,0,0,0,.247.924,1.241,1.241,0,0,0,.945.279,4.951,4.951,0,0,0,.913-.075v2.353a6.391,6.391,0,0,1-1.88.279q-3.266,0-3.33-3.3V15.654h-1.7V13.377h1.7V10.52Zm2.911,8.562A6.893,6.893,0,0,1,13.036,16,4.876,4.876,0,0,1,14.953,13.9a5.594,5.594,0,0,1,2.906-.741A5.293,5.293,0,0,1,21.7,14.6a5.777,5.777,0,0,1,1.66,3.91l.021.795A6.075,6.075,0,0,1,21.887,23.6a5.19,5.19,0,0,1-4.007,1.617A5.216,5.216,0,0,1,13.868,23.6a6.182,6.182,0,0,1-1.5-4.383Zm3.1.22a4.345,4.345,0,0,0,.623,2.534,2.055,2.055,0,0,0,1.783.877,2.06,2.06,0,0,0,1.762-.866,4.754,4.754,0,0,0,.634-2.77,4.3,4.3,0,0,0-.634-2.518,2.06,2.06,0,0,0-1.783-.893,2.027,2.027,0,0,0-1.762.888A4.834,4.834,0,0,0,15.474,19.3Zm16.35-3.013a8.434,8.434,0,0,0-1.117-.086,2.274,2.274,0,0,0-2.31,1.192V25h-3.1V13.377h2.933l.086,1.386a2.877,2.877,0,0,1,2.589-1.6,3.253,3.253,0,0,1,.967.14Zm1.225.881a8.339,8.339,0,0,1,1-4.028,7.521,7.521,0,0,1,2.782-2.927,7.434,7.434,0,0,1,7.681,0A7.521,7.521,0,0,1,47.3,13.141a8.574,8.574,0,0,1-.016,8.083,7.614,7.614,0,0,1-2.788,2.927,7.4,7.4,0,0,1-7.659-.011,7.624,7.624,0,0,1-2.777-2.933A8.325,8.325,0,0,1,33.048,17.169Zm13.933-.005a7.018,7.018,0,0,0-.806-3.317A6.3,6.3,0,0,0,43.9,11.4a5.966,5.966,0,0,0-3.223-.919,6.051,6.051,0,0,0-3.174.882,6.243,6.243,0,0,0-2.3,2.43,7.24,7.24,0,0,0-.005,6.752,6.323,6.323,0,0,0,2.3,2.446,6.072,6.072,0,0,0,6.381-.016,6.3,6.3,0,0,0,2.293-2.462A7.06,7.06,0,0,0,46.981,17.164Zm-7.853.822v3.62H37.506V12.475h3.019a4.029,4.029,0,0,1,2.557.736,2.5,2.5,0,0,1,.935,2.089A2.055,2.055,0,0,1,42.8,17.169a1.9,1.9,0,0,1,.918.929,3.659,3.659,0,0,1,.263,1.477q0,.881.038,1.246a2.079,2.079,0,0,0,.145.612v.172H42.5a8.548,8.548,0,0,1-.14-2.084,1.633,1.633,0,0,0-.354-1.176,1.614,1.614,0,0,0-1.182-.36Zm0-1.439h1.461a2.29,2.29,0,0,0,1.305-.344,1.045,1.045,0,0,0,.51-.9,1.32,1.32,0,0,0-.381-1.069,2.264,2.264,0,0,0-1.38-.328H39.128Z" transform="translate(703.5 719.5)" fill="#fff"/>
    <path id="Trazado_174410" data-name="Trazado 174410" d="M-5.248-15.641h3.223V-4.812a5.178,5.178,0,0,1-.661,2.637A4.483,4.483,0,0,1-4.549-.408,5.822,5.822,0,0,1-7.267.215a5.534,5.534,0,0,1-3.867-1.262A4.586,4.586,0,0,1-12.52-4.619h3.244a2.515,2.515,0,0,0,.483,1.7,1.934,1.934,0,0,0,1.525.548A1.847,1.847,0,0,0-5.8-3.008a2.678,2.678,0,0,0,.548-1.8Zm17.757,2.61H7.718V0H4.5V-13.03H-.231v-2.61h12.74Z" transform="translate(696.5 963.337)" fill="#fff"/>
    <path id="Trazado_174339" data-name="Trazado 174339" d="M317.59,71.127,281.772,50.448V91.807Z" transform="translate(917.968 988.965) rotate(-150)" fill="#af0f3f"/>
    <path id="Trazado_174399" data-name="Trazado 174399" d="M317.59,71.127,281.772,50.448V91.807Z" transform="translate(917.968 1087.965) rotate(-150)" fill="#af0f3f"/>
    <path id="Trazado_174340" data-name="Trazado 174340" d="M317.59,71.127,281.772,50.448V91.807Z" transform="translate(721.968 988.965) rotate(-150)" fill="#af0f3f"/>
    <path id="Trazado_174398" data-name="Trazado 174398" d="M317.59,71.127,281.772,50.448V91.807Z" transform="translate(721.968 1087.965) rotate(-150)" fill="#af0f3f"/>
    <path id="Trazado_174341" data-name="Trazado 174341" d="M317.59,71.127,281.772,50.448V91.807Z" transform="translate(514.817 988.965) rotate(-150)" fill="#af0f3f"/>
    <path id="Trazado_174397" data-name="Trazado 174397" d="M317.59,71.127,281.772,50.448V91.807Z" transform="translate(514.817 1087.965) rotate(-150)" fill="#af0f3f"/>
    <path id="Trazado_174407" data-name="Trazado 174407" d="M16.641,19.484H10.477L9.3,23H5.566L11.918,5.938h3.258L21.563,23H17.824Zm-5.215-2.848h4.266L13.547,10.25Zm28.9.141a7.6,7.6,0,0,1-1.33,4.693A4.264,4.264,0,0,1,35.4,23.234,3.95,3.95,0,0,1,32.3,21.9v5.977H28.91V10.32h3.141l.117,1.242a3.98,3.98,0,0,1,3.211-1.477,4.294,4.294,0,0,1,3.645,1.734,7.811,7.811,0,0,1,1.3,4.781Zm-3.387-.258a5.018,5.018,0,0,0-.627-2.739,2.04,2.04,0,0,0-1.822-.964A2.217,2.217,0,0,0,32.3,14.039v5.207A2.254,2.254,0,0,0,34.512,20.5Q36.938,20.5,36.938,16.519ZM49.77,23a3.761,3.761,0,0,1-.34-1.137,4.1,4.1,0,0,1-3.2,1.371,4.5,4.5,0,0,1-3.088-1.078,3.467,3.467,0,0,1-1.225-2.719,3.583,3.583,0,0,1,1.494-3.094,7.373,7.373,0,0,1,4.318-1.09h1.559v-.727a2.089,2.089,0,0,0-.451-1.406,1.775,1.775,0,0,0-1.424-.527,2.018,2.018,0,0,0-1.342.41,1.393,1.393,0,0,0-.486,1.125H42.2a3.4,3.4,0,0,1,.68-2.039A4.493,4.493,0,0,1,44.8,10.619a7,7,0,0,1,2.789-.533,5.534,5.534,0,0,1,3.721,1.178,4.12,4.12,0,0,1,1.377,3.311v5.5a6.062,6.062,0,0,0,.5,2.73V23Zm-2.8-2.355a2.917,2.917,0,0,0,1.383-.334,2.194,2.194,0,0,0,.938-.9v-2.18H48.023q-2.543,0-2.707,1.758l-.012.2a1.356,1.356,0,0,0,.445,1.043A1.73,1.73,0,0,0,46.969,20.645ZM62.414,13.5A9.2,9.2,0,0,0,61.2,13.4a2.481,2.481,0,0,0-2.52,1.3V23H55.289V10.32h3.2l.094,1.512a3.138,3.138,0,0,1,2.824-1.746,3.549,3.549,0,0,1,1.055.152ZM68.684,7.2V10.32h2.168V12.8H68.684v6.328a1.511,1.511,0,0,0,.27,1.008,1.354,1.354,0,0,0,1.031.3,5.4,5.4,0,0,0,1-.082V22.93a6.972,6.972,0,0,1-2.051.3q-3.562,0-3.633-3.6V12.8H63.445V10.32H65.3V7.2ZM76.313,23h-3.4V10.32h3.4Zm-3.6-15.961a1.668,1.668,0,0,1,.51-1.254,2.2,2.2,0,0,1,2.771,0,1.658,1.658,0,0,1,.516,1.254A1.663,1.663,0,0,1,75.99,8.3a2.172,2.172,0,0,1-2.754,0A1.663,1.663,0,0,1,72.715,7.039ZM86.227,13.5a9.2,9.2,0,0,0-1.219-.094,2.481,2.481,0,0,0-2.52,1.3V23H79.1V10.32h3.2l.094,1.512a3.138,3.138,0,0,1,2.824-1.746,3.549,3.549,0,0,1,1.055.152Zm7.078,3.07a7.641,7.641,0,0,1,1.33-4.723,4.316,4.316,0,0,1,3.639-1.758,3.884,3.884,0,0,1,3.059,1.383V5h3.4V23h-3.059l-.164-1.348a3.985,3.985,0,0,1-3.258,1.582,4.3,4.3,0,0,1-3.592-1.764A7.887,7.887,0,0,1,93.3,16.566Zm3.387.241a5.033,5.033,0,0,0,.621,2.743,2.022,2.022,0,0,0,1.8.954,2.265,2.265,0,0,0,2.215-1.33V14.147a2.233,2.233,0,0,0-2.191-1.33Q96.691,12.816,96.691,16.807Zm16.5,6.427a6.225,6.225,0,0,1-4.541-1.711,6.082,6.082,0,0,1-1.752-4.559v-.328a7.66,7.66,0,0,1,.738-3.416,5.418,5.418,0,0,1,2.092-2.32,5.871,5.871,0,0,1,3.088-.814,5.262,5.262,0,0,1,4.1,1.641,6.667,6.667,0,0,1,1.494,4.652v1.383h-8.074a3.146,3.146,0,0,0,.99,1.992,2.993,2.993,0,0,0,2.092.75,3.656,3.656,0,0,0,3.059-1.418l1.664,1.863a5.084,5.084,0,0,1-2.062,1.682A6.767,6.767,0,0,1,113.191,23.234ZM112.8,12.816a2.116,2.116,0,0,0-1.635.683,3.535,3.535,0,0,0-.8,1.954h4.711v-.271a2.521,2.521,0,0,0-.609-1.748A2.183,2.183,0,0,0,112.8,12.816ZM129.879,23h-3.4V5h3.4Zm10.137,0a3.761,3.761,0,0,1-.34-1.137,4.1,4.1,0,0,1-3.2,1.371,4.5,4.5,0,0,1-3.088-1.078,3.467,3.467,0,0,1-1.225-2.719,3.583,3.583,0,0,1,1.494-3.094,7.373,7.373,0,0,1,4.318-1.09h1.559v-.727a2.089,2.089,0,0,0-.451-1.406,1.775,1.775,0,0,0-1.424-.527,2.018,2.018,0,0,0-1.342.41,1.393,1.393,0,0,0-.486,1.125h-3.387a3.4,3.4,0,0,1,.68-2.039,4.493,4.493,0,0,1,1.922-1.471,7,7,0,0,1,2.789-.533,5.534,5.534,0,0,1,3.721,1.178,4.12,4.12,0,0,1,1.377,3.311v5.5a6.062,6.062,0,0,0,.5,2.73V23Zm-2.8-2.355a2.917,2.917,0,0,0,1.383-.334,2.194,2.194,0,0,0,.938-.9v-2.18H138.27q-2.543,0-2.707,1.758l-.012.2A1.356,1.356,0,0,0,136,20.234,1.73,1.73,0,0,0,137.215,20.645ZM155.086,23h-3.4V10.32h3.4Zm-3.6-15.961A1.668,1.668,0,0,1,152,5.785a2.2,2.2,0,0,1,2.771,0,1.658,1.658,0,0,1,.516,1.254,1.663,1.663,0,0,1-.521,1.266,2.172,2.172,0,0,1-2.754,0A1.663,1.663,0,0,1,151.488,7.039Zm9.563,3.281.105,1.418a4.456,4.456,0,0,1,3.645-1.652,3.382,3.382,0,0,1,3.363,1.934,4.354,4.354,0,0,1,3.809-1.934,3.782,3.782,0,0,1,3.07,1.2,5.521,5.521,0,0,1,1.008,3.615V23h-3.4V14.9a2.424,2.424,0,0,0-.422-1.58,1.867,1.867,0,0,0-1.488-.5,2.114,2.114,0,0,0-2.109,1.456L168.645,23h-3.387V14.907a2.394,2.394,0,0,0-.434-1.6,1.885,1.885,0,0,0-1.477-.493,2.194,2.194,0,0,0-2.086,1.2V23h-3.387V10.32Zm29.016,6.457a7.6,7.6,0,0,1-1.33,4.693,4.264,4.264,0,0,1-3.592,1.764,3.95,3.95,0,0,1-3.105-1.336v5.977h-3.387V10.32h3.141l.117,1.242a3.98,3.98,0,0,1,3.211-1.477,4.294,4.294,0,0,1,3.645,1.734,7.811,7.811,0,0,1,1.3,4.781Zm-3.387-.258a5.018,5.018,0,0,0-.627-2.739,2.04,2.04,0,0,0-1.822-.964,2.217,2.217,0,0,0-2.191,1.222v5.207a2.254,2.254,0,0,0,2.215,1.258Q186.68,20.5,186.68,16.519Zm4.957.024a7.52,7.52,0,0,1,.727-3.363,5.319,5.319,0,0,1,2.092-2.285,6.1,6.1,0,0,1,3.17-.809,5.774,5.774,0,0,1,4.189,1.57,6.3,6.3,0,0,1,1.811,4.266l.023.867a6.627,6.627,0,0,1-1.629,4.682,6.313,6.313,0,0,1-8.748.006,6.744,6.744,0,0,1-1.635-4.781Zm3.387.24a4.74,4.74,0,0,0,.68,2.764,2.442,2.442,0,0,0,3.867.012,5.186,5.186,0,0,0,.691-3.022,4.692,4.692,0,0,0-.691-2.746,2.248,2.248,0,0,0-1.945-.974,2.211,2.211,0,0,0-1.922.968A5.274,5.274,0,0,0,195.023,16.783ZM212.859,13.5a9.2,9.2,0,0,0-1.219-.094,2.481,2.481,0,0,0-2.52,1.3V23h-3.387V10.32h3.2l.094,1.512a3.138,3.138,0,0,1,2.824-1.746,3.549,3.549,0,0,1,1.055.152Zm6.27-6.293V10.32H221.3V12.8h-2.168v6.328a1.511,1.511,0,0,0,.27,1.008,1.354,1.354,0,0,0,1.031.3,5.4,5.4,0,0,0,1-.082V22.93a6.972,6.972,0,0,1-2.051.3q-3.562,0-3.633-3.6V12.8h-1.852V10.32h1.852V7.2Zm11.4,15.8a3.761,3.761,0,0,1-.34-1.137,4.1,4.1,0,0,1-3.2,1.371,4.5,4.5,0,0,1-3.088-1.078,3.467,3.467,0,0,1-1.225-2.719,3.583,3.583,0,0,1,1.494-3.094,7.373,7.373,0,0,1,4.318-1.09h1.559v-.727a2.089,2.089,0,0,0-.451-1.406,1.775,1.775,0,0,0-1.424-.527,2.018,2.018,0,0,0-1.342.41,1.393,1.393,0,0,0-.486,1.125h-3.387a3.4,3.4,0,0,1,.68-2.039,4.493,4.493,0,0,1,1.922-1.471,7,7,0,0,1,2.789-.533,5.534,5.534,0,0,1,3.721,1.178,4.12,4.12,0,0,1,1.377,3.311v5.5a6.062,6.062,0,0,0,.5,2.73V23Zm-2.8-2.355a2.917,2.917,0,0,0,1.383-.334,2.194,2.194,0,0,0,.938-.9v-2.18h-1.266q-2.543,0-2.707,1.758l-.012.2a1.356,1.356,0,0,0,.445,1.043A1.73,1.73,0,0,0,227.73,20.645Zm13.594-.141a2.221,2.221,0,0,0,1.523-.516,1.807,1.807,0,0,0,.609-1.371h3.176a4.344,4.344,0,0,1-.7,2.361,4.64,4.64,0,0,1-1.893,1.664,5.923,5.923,0,0,1-2.654.592,5.5,5.5,0,0,1-4.289-1.729,6.84,6.84,0,0,1-1.57-4.775v-.223a6.762,6.762,0,0,1,1.559-4.676,5.441,5.441,0,0,1,4.277-1.746,5.333,5.333,0,0,1,3.814,1.354,4.792,4.792,0,0,1,1.459,3.6h-3.176a2.327,2.327,0,0,0-.609-1.608,2.265,2.265,0,0,0-3.334.244,5,5,0,0,0-.6,2.8v.352a5.063,5.063,0,0,0,.6,2.817A2.065,2.065,0,0,0,241.324,20.5ZM252.141,23h-3.4V10.32h3.4Zm-3.6-15.961a1.668,1.668,0,0,1,.51-1.254,2.2,2.2,0,0,1,2.771,0,1.658,1.658,0,0,1,.516,1.254,1.663,1.663,0,0,1-.521,1.266,2.172,2.172,0,0,1-2.754,0A1.663,1.663,0,0,1,248.543,7.039Zm5.859,9.5a7.52,7.52,0,0,1,.727-3.363,5.319,5.319,0,0,1,2.092-2.285,6.1,6.1,0,0,1,3.17-.809,5.774,5.774,0,0,1,4.189,1.57,6.3,6.3,0,0,1,1.811,4.266l.023.867a6.627,6.627,0,0,1-1.629,4.682,6.313,6.313,0,0,1-8.748.006A6.744,6.744,0,0,1,254.4,16.7Zm3.387.24a4.74,4.74,0,0,0,.68,2.764,2.442,2.442,0,0,0,3.867.012,5.186,5.186,0,0,0,.691-3.022,4.692,4.692,0,0,0-.691-2.746,2.248,2.248,0,0,0-1.945-.974,2.211,2.211,0,0,0-1.922.968A5.274,5.274,0,0,0,257.789,16.783ZM261.059,5h3.691L261.5,8.633H258.75Zm10.559,5.32.105,1.465a4.427,4.427,0,0,1,3.645-1.7,3.679,3.679,0,0,1,3,1.184,5.522,5.522,0,0,1,1.008,3.539V23h-3.387V14.872a2.206,2.206,0,0,0-.469-1.568,2.1,2.1,0,0,0-1.559-.487,2.329,2.329,0,0,0-2.145,1.221V23H268.43V10.32Zm15.773,6.246a7.641,7.641,0,0,1,1.33-4.723,4.316,4.316,0,0,1,3.639-1.758,3.884,3.884,0,0,1,3.059,1.383V5h3.4V23h-3.059l-.164-1.348a3.985,3.985,0,0,1-3.258,1.582,4.3,4.3,0,0,1-3.592-1.764A7.887,7.887,0,0,1,287.391,16.566Zm3.387.241a5.033,5.033,0,0,0,.621,2.743,2.022,2.022,0,0,0,1.8.954,2.265,2.265,0,0,0,2.215-1.33V14.147a2.233,2.233,0,0,0-2.191-1.33Q290.777,12.816,290.777,16.807Zm16.5,6.427a6.225,6.225,0,0,1-4.541-1.711,6.082,6.082,0,0,1-1.752-4.559v-.328a7.66,7.66,0,0,1,.738-3.416,5.418,5.418,0,0,1,2.092-2.32,5.871,5.871,0,0,1,3.088-.814,5.262,5.262,0,0,1,4.1,1.641,6.667,6.667,0,0,1,1.494,4.652v1.383h-8.074a3.146,3.146,0,0,0,.99,1.992,2.993,2.993,0,0,0,2.092.75,3.656,3.656,0,0,0,3.059-1.418l1.664,1.863a5.084,5.084,0,0,1-2.062,1.682A6.767,6.767,0,0,1,307.277,23.234Zm-.387-10.418a2.116,2.116,0,0,0-1.635.683,3.535,3.535,0,0,0-.8,1.954h4.711v-.271a2.521,2.521,0,0,0-.609-1.748A2.183,2.183,0,0,0,306.891,12.816ZM327.738,23a3.761,3.761,0,0,1-.34-1.137,4.1,4.1,0,0,1-3.2,1.371,4.5,4.5,0,0,1-3.088-1.078,3.467,3.467,0,0,1-1.225-2.719,3.583,3.583,0,0,1,1.494-3.094,7.373,7.373,0,0,1,4.318-1.09h1.559v-.727a2.089,2.089,0,0,0-.451-1.406,1.775,1.775,0,0,0-1.424-.527,2.018,2.018,0,0,0-1.342.41,1.393,1.393,0,0,0-.486,1.125h-3.387a3.4,3.4,0,0,1,.68-2.039,4.493,4.493,0,0,1,1.922-1.471,7,7,0,0,1,2.789-.533,5.534,5.534,0,0,1,3.721,1.178,4.12,4.12,0,0,1,1.377,3.311v5.5a6.062,6.062,0,0,0,.5,2.73V23Zm-2.8-2.355a2.917,2.917,0,0,0,1.383-.334,2.194,2.194,0,0,0,.938-.9v-2.18h-1.266q-2.543,0-2.707,1.758l-.012.2a1.356,1.356,0,0,0,.445,1.043A1.73,1.73,0,0,0,324.938,20.645ZM340.383,13.5a9.2,9.2,0,0,0-1.219-.094,2.481,2.481,0,0,0-2.52,1.3V23h-3.387V10.32h3.2l.094,1.512a3.138,3.138,0,0,1,2.824-1.746,3.549,3.549,0,0,1,1.055.152Zm6.68,7.008a2.221,2.221,0,0,0,1.523-.516,1.807,1.807,0,0,0,.609-1.371h3.176a4.344,4.344,0,0,1-.7,2.361,4.64,4.64,0,0,1-1.893,1.664,5.923,5.923,0,0,1-2.654.592,5.5,5.5,0,0,1-4.289-1.729,6.84,6.84,0,0,1-1.57-4.775v-.223a6.762,6.762,0,0,1,1.559-4.676,5.441,5.441,0,0,1,4.277-1.746,5.333,5.333,0,0,1,3.814,1.354,4.792,4.792,0,0,1,1.459,3.6H349.2a2.327,2.327,0,0,0-.609-1.608,2.265,2.265,0,0,0-3.334.244,5,5,0,0,0-.6,2.8v.352a5.063,5.063,0,0,0,.6,2.817A2.065,2.065,0,0,0,347.063,20.5Zm10.547-8.8A4.227,4.227,0,0,1,361,10.086q4.125,0,4.184,4.793V23h-3.387V14.954a2.365,2.365,0,0,0-.469-1.615,2.007,2.007,0,0,0-1.559-.523,2.3,2.3,0,0,0-2.156,1.151V23h-3.387V5h3.387Zm13.7,11.3h-3.4V10.32h3.4Zm-3.6-15.961a1.668,1.668,0,0,1,.51-1.254,2.2,2.2,0,0,1,2.771,0,1.658,1.658,0,0,1,.516,1.254,1.663,1.663,0,0,1-.521,1.266,2.172,2.172,0,0,1-2.754,0A1.663,1.663,0,0,1,367.711,7.039Zm11.133,11.824L381.2,10.32h3.539L380.461,23h-3.234l-4.277-12.68h3.539Zm6.68-2.32a7.52,7.52,0,0,1,.727-3.363,5.319,5.319,0,0,1,2.092-2.285,6.1,6.1,0,0,1,3.17-.809,5.774,5.774,0,0,1,4.189,1.57,6.3,6.3,0,0,1,1.811,4.266l.023.867a6.627,6.627,0,0,1-1.629,4.682,6.313,6.313,0,0,1-8.748.006,6.744,6.744,0,0,1-1.635-4.781Zm3.387.24a4.74,4.74,0,0,0,.68,2.764,2.442,2.442,0,0,0,3.867.012,5.186,5.186,0,0,0,.691-3.022,4.692,4.692,0,0,0-.691-2.746,2.248,2.248,0,0,0-1.945-.974,2.211,2.211,0,0,0-1.922.968A5.274,5.274,0,0,0,388.91,16.783ZM406.488,19.5a1.091,1.091,0,0,0-.615-.979,6.989,6.989,0,0,0-1.975-.639q-4.523-.949-4.523-3.844a3.484,3.484,0,0,1,1.4-2.818,5.649,5.649,0,0,1,3.662-1.131,6.08,6.08,0,0,1,3.861,1.137,3.582,3.582,0,0,1,1.447,2.953h-3.387a1.639,1.639,0,0,0-.469-1.2,1.984,1.984,0,0,0-1.465-.475,2.027,2.027,0,0,0-1.324.387,1.221,1.221,0,0,0-.469.984,1.044,1.044,0,0,0,.533.908,5.485,5.485,0,0,0,1.8.6,14.693,14.693,0,0,1,2.133.568q2.684.984,2.684,3.41a3.307,3.307,0,0,1-1.488,2.807,6.42,6.42,0,0,1-3.844,1.072,6.706,6.706,0,0,1-2.83-.568,4.748,4.748,0,0,1-1.939-1.559,3.621,3.621,0,0,1-.7-2.139h3.211a1.768,1.768,0,0,0,.668,1.383,2.649,2.649,0,0,0,1.664.48,2.452,2.452,0,0,0,1.471-.369A1.149,1.149,0,0,0,406.488,19.5Zm17.285,3.738a6.225,6.225,0,0,1-4.541-1.711,6.082,6.082,0,0,1-1.752-4.559v-.328a7.66,7.66,0,0,1,.738-3.416,5.418,5.418,0,0,1,2.092-2.32,5.871,5.871,0,0,1,3.088-.814,5.262,5.262,0,0,1,4.1,1.641,6.667,6.667,0,0,1,1.494,4.652v1.383h-8.074a3.146,3.146,0,0,0,.99,1.992A2.993,2.993,0,0,0,424,20.5a3.656,3.656,0,0,0,3.059-1.418l1.664,1.863a5.084,5.084,0,0,1-2.062,1.682A6.767,6.767,0,0,1,423.773,23.234Zm-.387-10.418a2.116,2.116,0,0,0-1.635.683,3.535,3.535,0,0,0-.8,1.954h4.711v-.271a2.521,2.521,0,0,0-.609-1.748A2.183,2.183,0,0,0,423.387,12.816Zm10.641-2.5.105,1.465a4.427,4.427,0,0,1,3.645-1.7,3.679,3.679,0,0,1,3,1.184,5.522,5.522,0,0,1,1.008,3.539V23H438.4V14.872a2.206,2.206,0,0,0-.469-1.568,2.1,2.1,0,0,0-1.559-.487,2.329,2.329,0,0,0-2.145,1.221V23H430.84V10.32ZM453.9,23h-3.4V5h3.4Zm2.262-6.457a7.52,7.52,0,0,1,.727-3.363,5.319,5.319,0,0,1,2.092-2.285,6.1,6.1,0,0,1,3.17-.809,5.774,5.774,0,0,1,4.189,1.57,6.3,6.3,0,0,1,1.811,4.266l.023.867a6.627,6.627,0,0,1-1.629,4.682,6.313,6.313,0,0,1-8.748.006,6.744,6.744,0,0,1-1.635-4.781Zm3.387.24a4.74,4.74,0,0,0,.68,2.764,2.442,2.442,0,0,0,3.867.012,5.186,5.186,0,0,0,.691-3.022,4.692,4.692,0,0,0-.691-2.746,2.248,2.248,0,0,0-1.945-.974,2.211,2.211,0,0,0-1.922.968A5.274,5.274,0,0,0,459.551,16.783ZM477.129,19.5a1.091,1.091,0,0,0-.615-.979,6.989,6.989,0,0,0-1.975-.639q-4.523-.949-4.523-3.844a3.484,3.484,0,0,1,1.4-2.818,5.649,5.649,0,0,1,3.662-1.131,6.08,6.08,0,0,1,3.861,1.137,3.582,3.582,0,0,1,1.447,2.953H477a1.639,1.639,0,0,0-.469-1.2,1.984,1.984,0,0,0-1.465-.475,2.027,2.027,0,0,0-1.324.387,1.221,1.221,0,0,0-.469.984,1.044,1.044,0,0,0,.533.908,5.485,5.485,0,0,0,1.8.6,14.693,14.693,0,0,1,2.133.568q2.684.984,2.684,3.41a3.307,3.307,0,0,1-1.488,2.807,6.42,6.42,0,0,1-3.844,1.072,6.706,6.706,0,0,1-2.83-.568,4.748,4.748,0,0,1-1.939-1.559,3.621,3.621,0,0,1-.7-2.139h3.211a1.768,1.768,0,0,0,.668,1.383,2.649,2.649,0,0,0,1.664.48,2.452,2.452,0,0,0,1.471-.369A1.149,1.149,0,0,0,477.129,19.5ZM489.5,23V12.8h-1.887V10.32H489.5V9.242a4.377,4.377,0,0,1,1.225-3.311,4.743,4.743,0,0,1,3.428-1.178,7.982,7.982,0,0,1,1.723.232l-.035,2.6a4.318,4.318,0,0,0-1.031-.105q-1.91,0-1.91,1.808V10.32h2.52V12.8H492.9V23Zm7.148-6.457a7.52,7.52,0,0,1,.727-3.363,5.319,5.319,0,0,1,2.092-2.285,6.1,6.1,0,0,1,3.17-.809,5.774,5.774,0,0,1,4.189,1.57,6.3,6.3,0,0,1,1.811,4.266l.023.867a6.627,6.627,0,0,1-1.629,4.682,6.313,6.313,0,0,1-8.748.006,6.744,6.744,0,0,1-1.635-4.781Zm3.387.24a4.74,4.74,0,0,0,.68,2.764,2.442,2.442,0,0,0,3.867.012,5.186,5.186,0,0,0,.691-3.022,4.692,4.692,0,0,0-.691-2.746,2.248,2.248,0,0,0-1.945-.974,2.211,2.211,0,0,0-1.922.968A5.274,5.274,0,0,0,500.039,16.783ZM517.875,13.5a9.2,9.2,0,0,0-1.219-.094,2.481,2.481,0,0,0-2.52,1.3V23H510.75V10.32h3.2l.094,1.512a3.138,3.138,0,0,1,2.824-1.746,3.549,3.549,0,0,1,1.055.152Zm4.8-3.176.105,1.418a4.456,4.456,0,0,1,3.645-1.652,3.382,3.382,0,0,1,3.363,1.934,4.354,4.354,0,0,1,3.809-1.934,3.782,3.782,0,0,1,3.07,1.2A5.521,5.521,0,0,1,537.68,14.9V23h-3.4V14.9a2.424,2.424,0,0,0-.422-1.58,1.867,1.867,0,0,0-1.488-.5,2.114,2.114,0,0,0-2.109,1.456L530.273,23h-3.387V14.907a2.394,2.394,0,0,0-.434-1.6,1.885,1.885,0,0,0-1.477-.493,2.194,2.194,0,0,0-2.086,1.2V23H519.5V10.32ZM547.629,23a3.761,3.761,0,0,1-.34-1.137,4.1,4.1,0,0,1-3.2,1.371A4.5,4.5,0,0,1,541,22.156a3.467,3.467,0,0,1-1.225-2.719,3.583,3.583,0,0,1,1.494-3.094,7.373,7.373,0,0,1,4.318-1.09h1.559v-.727a2.089,2.089,0,0,0-.451-1.406,1.775,1.775,0,0,0-1.424-.527,2.018,2.018,0,0,0-1.342.41,1.393,1.393,0,0,0-.486,1.125h-3.387a3.4,3.4,0,0,1,.68-2.039,4.493,4.493,0,0,1,1.922-1.471,7,7,0,0,1,2.789-.533,5.534,5.534,0,0,1,3.721,1.178,4.12,4.12,0,0,1,1.377,3.311v5.5a6.062,6.062,0,0,0,.5,2.73V23Zm-2.8-2.355a2.917,2.917,0,0,0,1.383-.334,2.194,2.194,0,0,0,.938-.9v-2.18h-1.266q-2.543,0-2.707,1.758l-.012.2a1.356,1.356,0,0,0,.445,1.043A1.73,1.73,0,0,0,544.828,20.645ZM557.2,7.2V10.32h2.168V12.8H557.2v6.328a1.511,1.511,0,0,0,.27,1.008,1.354,1.354,0,0,0,1.031.3,5.4,5.4,0,0,0,1-.082V22.93a6.972,6.972,0,0,1-2.051.3q-3.562,0-3.633-3.6V12.8h-1.852V10.32h1.852V7.2Zm3.176,9.34a7.52,7.52,0,0,1,.727-3.363,5.319,5.319,0,0,1,2.092-2.285,6.1,6.1,0,0,1,3.17-.809,5.774,5.774,0,0,1,4.189,1.57,6.3,6.3,0,0,1,1.811,4.266l.023.867a6.627,6.627,0,0,1-1.629,4.682,6.313,6.313,0,0,1-8.748.006,6.744,6.744,0,0,1-1.635-4.781Zm3.387.24a4.74,4.74,0,0,0,.68,2.764,2.442,2.442,0,0,0,3.867.012A5.186,5.186,0,0,0,569,16.537a4.692,4.692,0,0,0-.691-2.746,2.248,2.248,0,0,0-1.945-.974,2.211,2.211,0,0,0-1.922.968A5.274,5.274,0,0,0,563.766,16.783ZM581.344,19.5a1.091,1.091,0,0,0-.615-.979,6.989,6.989,0,0,0-1.975-.639q-4.523-.949-4.523-3.844a3.484,3.484,0,0,1,1.4-2.818,5.649,5.649,0,0,1,3.662-1.131,6.08,6.08,0,0,1,3.861,1.137,3.582,3.582,0,0,1,1.447,2.953h-3.387a1.639,1.639,0,0,0-.469-1.2,1.984,1.984,0,0,0-1.465-.475,2.027,2.027,0,0,0-1.324.387,1.221,1.221,0,0,0-.469.984,1.044,1.044,0,0,0,.533.908,5.485,5.485,0,0,0,1.8.6,14.693,14.693,0,0,1,2.133.568q2.684.984,2.684,3.41a3.307,3.307,0,0,1-1.488,2.807,6.42,6.42,0,0,1-3.844,1.072,6.706,6.706,0,0,1-2.83-.568,4.748,4.748,0,0,1-1.939-1.559,3.621,3.621,0,0,1-.7-2.139h3.211a1.768,1.768,0,0,0,.668,1.383,2.649,2.649,0,0,0,1.664.48,2.452,2.452,0,0,0,1.471-.369A1.149,1.149,0,0,0,581.344,19.5Z" transform="translate(206 823)" fill="#12263f"/>
  </g>
</svg>
