<svg xmlns="http://www.w3.org/2000/svg" width="376.723" height="477.202" viewBox="0 0 376.723 477.202">
  <g id="Grupo_124750" data-name="Grupo 124750" transform="translate(-216 -2881.605)">
    <g id="Grupo_124206" data-name="Grupo 124206" transform="translate(-205.88 3637.231) rotate(-90)">
      <g id="Grupo_124170" data-name="Grupo 124170" transform="translate(278.424 431.88)" opacity="0.437">
        <g id="Grupo_118401" data-name="Grupo 118401">
          <ellipse id="Elipse_4970" data-name="Elipse 4970" cx="160.674" cy="163.803" rx="160.674" ry="163.803" transform="translate(145.484)" fill="#0f1027" opacity="0.691"/>
          <ellipse id="Elipse_4971" data-name="Elipse 4971" cx="146.276" cy="146.276" rx="146.276" ry="146.276" transform="translate(0 42.411)" fill="#0f1027" opacity="0.691"/>
        </g>
      </g>
      <g id="Grupo_124171" data-name="Grupo 124171" transform="translate(669.04 706.178)">
        <path id="Trazado_173897" data-name="Trazado 173897" d="M241.839,60.564,224.317,50.448V70.68Z" transform="translate(-224.317 -50.448)" fill="#fdfdfd"/>
        <path id="Trazado_173898" data-name="Trazado 173898" d="M270.567,60.564,253.044,50.448V70.68Z" transform="translate(-223.697 -50.448)" fill="#0f1027"/>
        <path id="Trazado_173899" data-name="Trazado 173899" d="M299.294,60.564,281.772,50.448V70.68Z" transform="translate(-223.078 -50.448)" fill="#21999a"/>
      </g>
      <g id="Grupo_124172" data-name="Grupo 124172" transform="translate(442.585 447.186)">
        <g id="Grupo_118497" data-name="Grupo 118497" transform="translate(202.263 117.103)">
          <g id="Grupo_118330" data-name="Grupo 118330">
            <g id="Grupo_118326" data-name="Grupo 118326">
              <line id="Línea_1572" data-name="Línea 1572" y2="10.27" transform="translate(5.135)" fill="none" stroke="#8f9294" stroke-miterlimit="10" stroke-width="0.388"/>
              <line id="Línea_1573" data-name="Línea 1573" x2="10.27" transform="translate(0 5.135)" fill="none" stroke="#8f9294" stroke-miterlimit="10" stroke-width="0.388"/>
            </g>
            <g id="Grupo_118327" data-name="Grupo 118327" transform="translate(27.984)">
              <line id="Línea_1574" data-name="Línea 1574" y2="10.27" transform="translate(5.135)" fill="none" stroke="#8f9294" stroke-miterlimit="10" stroke-width="0.388"/>
              <line id="Línea_1575" data-name="Línea 1575" x2="10.269" transform="translate(0 5.135)" fill="none" stroke="#8f9294" stroke-miterlimit="10" stroke-width="0.388"/>
            </g>
            <g id="Grupo_118328" data-name="Grupo 118328" transform="translate(55.969)">
              <line id="Línea_1576" data-name="Línea 1576" y2="10.27" transform="translate(5.135)" fill="none" stroke="#8f9294" stroke-miterlimit="10" stroke-width="0.388"/>
              <line id="Línea_1577" data-name="Línea 1577" x2="10.27" transform="translate(0 5.135)" fill="none" stroke="#8f9294" stroke-miterlimit="10" stroke-width="0.388"/>
            </g>
            <g id="Grupo_118329" data-name="Grupo 118329" transform="translate(83.953)">
              <line id="Línea_1578" data-name="Línea 1578" y2="10.27" transform="translate(5.135)" fill="none" stroke="#8f9294" stroke-miterlimit="10" stroke-width="0.388"/>
              <line id="Línea_1579" data-name="Línea 1579" x2="10.27" transform="translate(0 5.135)" fill="none" stroke="#8f9294" stroke-miterlimit="10" stroke-width="0.388"/>
            </g>
          </g>
          <g id="Grupo_118335" data-name="Grupo 118335" transform="translate(0 21.309)">
            <g id="Grupo_118331" data-name="Grupo 118331">
              <line id="Línea_1580" data-name="Línea 1580" y2="10.27" transform="translate(5.135)" fill="none" stroke="#8f9294" stroke-miterlimit="10" stroke-width="0.388"/>
              <line id="Línea_1581" data-name="Línea 1581" x2="10.27" transform="translate(0 5.135)" fill="none" stroke="#8f9294" stroke-miterlimit="10" stroke-width="0.388"/>
            </g>
            <g id="Grupo_118332" data-name="Grupo 118332" transform="translate(27.984)">
              <line id="Línea_1582" data-name="Línea 1582" y2="10.27" transform="translate(5.135)" fill="none" stroke="#8f9294" stroke-miterlimit="10" stroke-width="0.388"/>
              <line id="Línea_1583" data-name="Línea 1583" x2="10.269" transform="translate(0 5.135)" fill="none" stroke="#8f9294" stroke-miterlimit="10" stroke-width="0.388"/>
            </g>
            <g id="Grupo_118333" data-name="Grupo 118333" transform="translate(55.969)">
              <line id="Línea_1584" data-name="Línea 1584" y2="10.27" transform="translate(5.135)" fill="none" stroke="#8f9294" stroke-miterlimit="10" stroke-width="0.388"/>
              <line id="Línea_1585" data-name="Línea 1585" x2="10.27" transform="translate(0 5.135)" fill="none" stroke="#8f9294" stroke-miterlimit="10" stroke-width="0.388"/>
            </g>
            <g id="Grupo_118334" data-name="Grupo 118334" transform="translate(83.953)">
              <line id="Línea_1586" data-name="Línea 1586" y2="10.27" transform="translate(5.135)" fill="none" stroke="#8f9294" stroke-miterlimit="10" stroke-width="0.388"/>
              <line id="Línea_1587" data-name="Línea 1587" x2="10.27" transform="translate(0 5.135)" fill="none" stroke="#8f9294" stroke-miterlimit="10" stroke-width="0.388"/>
            </g>
          </g>
          <g id="Grupo_118340" data-name="Grupo 118340" transform="translate(0 42.618)">
            <g id="Grupo_118336" data-name="Grupo 118336">
              <line id="Línea_1588" data-name="Línea 1588" y2="10.27" transform="translate(5.135)" fill="none" stroke="#8f9294" stroke-miterlimit="10" stroke-width="0.388"/>
              <line id="Línea_1589" data-name="Línea 1589" x2="10.27" transform="translate(0 5.135)" fill="none" stroke="#8f9294" stroke-miterlimit="10" stroke-width="0.388"/>
            </g>
            <g id="Grupo_118337" data-name="Grupo 118337" transform="translate(27.984)">
              <line id="Línea_1590" data-name="Línea 1590" y2="10.27" transform="translate(5.135)" fill="none" stroke="#8f9294" stroke-miterlimit="10" stroke-width="0.388"/>
              <line id="Línea_1591" data-name="Línea 1591" x2="10.269" transform="translate(0 5.135)" fill="none" stroke="#8f9294" stroke-miterlimit="10" stroke-width="0.388"/>
            </g>
            <g id="Grupo_118338" data-name="Grupo 118338" transform="translate(55.969)">
              <line id="Línea_1592" data-name="Línea 1592" y2="10.27" transform="translate(5.135)" fill="none" stroke="#8f9294" stroke-miterlimit="10" stroke-width="0.388"/>
              <line id="Línea_1593" data-name="Línea 1593" x2="10.27" transform="translate(0 5.135)" fill="none" stroke="#8f9294" stroke-miterlimit="10" stroke-width="0.388"/>
            </g>
            <g id="Grupo_118339" data-name="Grupo 118339" transform="translate(83.953)">
              <line id="Línea_1594" data-name="Línea 1594" y2="10.27" transform="translate(5.135)" fill="none" stroke="#8f9294" stroke-miterlimit="10" stroke-width="0.388"/>
              <line id="Línea_1595" data-name="Línea 1595" x2="10.27" transform="translate(0 5.135)" fill="none" stroke="#8f9294" stroke-miterlimit="10" stroke-width="0.388"/>
            </g>
          </g>
          <g id="Grupo_118345" data-name="Grupo 118345" transform="translate(0 63.928)">
            <g id="Grupo_118341" data-name="Grupo 118341">
              <line id="Línea_1596" data-name="Línea 1596" y2="10.27" transform="translate(5.135)" fill="none" stroke="#8f9294" stroke-miterlimit="10" stroke-width="0.388"/>
              <line id="Línea_1597" data-name="Línea 1597" x2="10.27" transform="translate(0 5.135)" fill="none" stroke="#8f9294" stroke-miterlimit="10" stroke-width="0.388"/>
            </g>
            <g id="Grupo_118342" data-name="Grupo 118342" transform="translate(27.984)">
              <line id="Línea_1598" data-name="Línea 1598" y2="10.27" transform="translate(5.135)" fill="none" stroke="#8f9294" stroke-miterlimit="10" stroke-width="0.388"/>
              <line id="Línea_1599" data-name="Línea 1599" x2="10.269" transform="translate(0 5.135)" fill="none" stroke="#8f9294" stroke-miterlimit="10" stroke-width="0.388"/>
            </g>
            <g id="Grupo_118343" data-name="Grupo 118343" transform="translate(55.969)">
              <line id="Línea_1600" data-name="Línea 1600" y2="10.27" transform="translate(5.135)" fill="none" stroke="#8f9294" stroke-miterlimit="10" stroke-width="0.388"/>
              <line id="Línea_1601" data-name="Línea 1601" x2="10.27" transform="translate(0 5.135)" fill="none" stroke="#8f9294" stroke-miterlimit="10" stroke-width="0.388"/>
            </g>
            <g id="Grupo_118344" data-name="Grupo 118344" transform="translate(83.953)">
              <line id="Línea_1602" data-name="Línea 1602" y2="10.27" transform="translate(5.135)" fill="none" stroke="#8f9294" stroke-miterlimit="10" stroke-width="0.388"/>
              <line id="Línea_1603" data-name="Línea 1603" x2="10.27" transform="translate(0 5.135)" fill="none" stroke="#8f9294" stroke-miterlimit="10" stroke-width="0.388"/>
            </g>
          </g>
        </g>
        <g id="Grupo_124242" data-name="Grupo 124242" transform="translate(-160.737 201.103)">
          <g id="Grupo_118330-2" data-name="Grupo 118330">
            <g id="Grupo_118326-2" data-name="Grupo 118326">
              <line id="Línea_1572-2" data-name="Línea 1572" y2="10.27" transform="translate(5.135)" fill="none" stroke="#8f9294" stroke-miterlimit="10" stroke-width="0.388"/>
              <line id="Línea_1573-2" data-name="Línea 1573" x2="10.27" transform="translate(0 5.135)" fill="none" stroke="#8f9294" stroke-miterlimit="10" stroke-width="0.388"/>
            </g>
            <g id="Grupo_118327-2" data-name="Grupo 118327" transform="translate(27.984)">
              <line id="Línea_1574-2" data-name="Línea 1574" y2="10.27" transform="translate(5.135)" fill="none" stroke="#8f9294" stroke-miterlimit="10" stroke-width="0.388"/>
              <line id="Línea_1575-2" data-name="Línea 1575" x2="10.269" transform="translate(0 5.135)" fill="none" stroke="#8f9294" stroke-miterlimit="10" stroke-width="0.388"/>
            </g>
            <g id="Grupo_118328-2" data-name="Grupo 118328" transform="translate(55.969)">
              <line id="Línea_1576-2" data-name="Línea 1576" y2="10.27" transform="translate(5.135)" fill="none" stroke="#8f9294" stroke-miterlimit="10" stroke-width="0.388"/>
              <line id="Línea_1577-2" data-name="Línea 1577" x2="10.27" transform="translate(0 5.135)" fill="none" stroke="#8f9294" stroke-miterlimit="10" stroke-width="0.388"/>
            </g>
            <g id="Grupo_118329-2" data-name="Grupo 118329" transform="translate(83.953)">
              <line id="Línea_1578-2" data-name="Línea 1578" y2="10.27" transform="translate(5.135)" fill="none" stroke="#8f9294" stroke-miterlimit="10" stroke-width="0.388"/>
              <line id="Línea_1579-2" data-name="Línea 1579" x2="10.27" transform="translate(0 5.135)" fill="none" stroke="#8f9294" stroke-miterlimit="10" stroke-width="0.388"/>
            </g>
          </g>
          <g id="Grupo_118335-2" data-name="Grupo 118335" transform="translate(0 21.309)">
            <g id="Grupo_118331-2" data-name="Grupo 118331">
              <line id="Línea_1580-2" data-name="Línea 1580" y2="10.27" transform="translate(5.135)" fill="none" stroke="#8f9294" stroke-miterlimit="10" stroke-width="0.388"/>
              <line id="Línea_1581-2" data-name="Línea 1581" x2="10.27" transform="translate(0 5.135)" fill="none" stroke="#8f9294" stroke-miterlimit="10" stroke-width="0.388"/>
            </g>
            <g id="Grupo_118332-2" data-name="Grupo 118332" transform="translate(27.984)">
              <line id="Línea_1582-2" data-name="Línea 1582" y2="10.27" transform="translate(5.135)" fill="none" stroke="#8f9294" stroke-miterlimit="10" stroke-width="0.388"/>
              <line id="Línea_1583-2" data-name="Línea 1583" x2="10.269" transform="translate(0 5.135)" fill="none" stroke="#8f9294" stroke-miterlimit="10" stroke-width="0.388"/>
            </g>
            <g id="Grupo_118333-2" data-name="Grupo 118333" transform="translate(55.969)">
              <line id="Línea_1584-2" data-name="Línea 1584" y2="10.27" transform="translate(5.135)" fill="none" stroke="#8f9294" stroke-miterlimit="10" stroke-width="0.388"/>
              <line id="Línea_1585-2" data-name="Línea 1585" x2="10.27" transform="translate(0 5.135)" fill="none" stroke="#8f9294" stroke-miterlimit="10" stroke-width="0.388"/>
            </g>
            <g id="Grupo_118334-2" data-name="Grupo 118334" transform="translate(83.953)">
              <line id="Línea_1586-2" data-name="Línea 1586" y2="10.27" transform="translate(5.135)" fill="none" stroke="#8f9294" stroke-miterlimit="10" stroke-width="0.388"/>
              <line id="Línea_1587-2" data-name="Línea 1587" x2="10.27" transform="translate(0 5.135)" fill="none" stroke="#8f9294" stroke-miterlimit="10" stroke-width="0.388"/>
            </g>
          </g>
          <g id="Grupo_118340-2" data-name="Grupo 118340" transform="translate(0 42.618)">
            <g id="Grupo_118336-2" data-name="Grupo 118336">
              <line id="Línea_1588-2" data-name="Línea 1588" y2="10.27" transform="translate(5.135)" fill="none" stroke="#8f9294" stroke-miterlimit="10" stroke-width="0.388"/>
              <line id="Línea_1589-2" data-name="Línea 1589" x2="10.27" transform="translate(0 5.135)" fill="none" stroke="#8f9294" stroke-miterlimit="10" stroke-width="0.388"/>
            </g>
            <g id="Grupo_118337-2" data-name="Grupo 118337" transform="translate(27.984)">
              <line id="Línea_1590-2" data-name="Línea 1590" y2="10.27" transform="translate(5.135)" fill="none" stroke="#8f9294" stroke-miterlimit="10" stroke-width="0.388"/>
              <line id="Línea_1591-2" data-name="Línea 1591" x2="10.269" transform="translate(0 5.135)" fill="none" stroke="#8f9294" stroke-miterlimit="10" stroke-width="0.388"/>
            </g>
            <g id="Grupo_118338-2" data-name="Grupo 118338" transform="translate(55.969)">
              <line id="Línea_1592-2" data-name="Línea 1592" y2="10.27" transform="translate(5.135)" fill="none" stroke="#8f9294" stroke-miterlimit="10" stroke-width="0.388"/>
              <line id="Línea_1593-2" data-name="Línea 1593" x2="10.27" transform="translate(0 5.135)" fill="none" stroke="#8f9294" stroke-miterlimit="10" stroke-width="0.388"/>
            </g>
            <g id="Grupo_118339-2" data-name="Grupo 118339" transform="translate(83.953)">
              <line id="Línea_1594-2" data-name="Línea 1594" y2="10.27" transform="translate(5.135)" fill="none" stroke="#8f9294" stroke-miterlimit="10" stroke-width="0.388"/>
              <line id="Línea_1595-2" data-name="Línea 1595" x2="10.27" transform="translate(0 5.135)" fill="none" stroke="#8f9294" stroke-miterlimit="10" stroke-width="0.388"/>
            </g>
          </g>
          <g id="Grupo_118345-2" data-name="Grupo 118345" transform="translate(0 63.928)">
            <g id="Grupo_118341-2" data-name="Grupo 118341">
              <line id="Línea_1596-2" data-name="Línea 1596" y2="10.27" transform="translate(5.135)" fill="none" stroke="#8f9294" stroke-miterlimit="10" stroke-width="0.388"/>
              <line id="Línea_1597-2" data-name="Línea 1597" x2="10.27" transform="translate(0 5.135)" fill="none" stroke="#8f9294" stroke-miterlimit="10" stroke-width="0.388"/>
            </g>
            <g id="Grupo_118342-2" data-name="Grupo 118342" transform="translate(27.984)">
              <line id="Línea_1598-2" data-name="Línea 1598" y2="10.27" transform="translate(5.135)" fill="none" stroke="#8f9294" stroke-miterlimit="10" stroke-width="0.388"/>
              <line id="Línea_1599-2" data-name="Línea 1599" x2="10.269" transform="translate(0 5.135)" fill="none" stroke="#8f9294" stroke-miterlimit="10" stroke-width="0.388"/>
            </g>
            <g id="Grupo_118343-2" data-name="Grupo 118343" transform="translate(55.969)">
              <line id="Línea_1600-2" data-name="Línea 1600" y2="10.27" transform="translate(5.135)" fill="none" stroke="#8f9294" stroke-miterlimit="10" stroke-width="0.388"/>
              <line id="Línea_1601-2" data-name="Línea 1601" x2="10.27" transform="translate(0 5.135)" fill="none" stroke="#8f9294" stroke-miterlimit="10" stroke-width="0.388"/>
            </g>
            <g id="Grupo_118344-2" data-name="Grupo 118344" transform="translate(83.953)">
              <line id="Línea_1602-2" data-name="Línea 1602" y2="10.27" transform="translate(5.135)" fill="none" stroke="#8f9294" stroke-miterlimit="10" stroke-width="0.388"/>
              <line id="Línea_1603-2" data-name="Línea 1603" x2="10.27" transform="translate(0 5.135)" fill="none" stroke="#8f9294" stroke-miterlimit="10" stroke-width="0.388"/>
            </g>
          </g>
        </g>
        <g id="Grupo_118498" data-name="Grupo 118498" transform="translate(0 0)">
          <path id="Trazado_173839" data-name="Trazado 173839" d="M594.1,212.9a157.606,157.606,0,0,1-97.6-108.3" transform="translate(-493.56 91.834)" fill="none" stroke="#8f9294" stroke-linecap="round" stroke-linejoin="round" stroke-width="1"/>
          <path id="Trazado_173840" data-name="Trazado 173840" d="M718.738,217.281a156.762,156.762,0,0,1-61.492,12.477,158.288,158.288,0,0,1-26.754-2.267" transform="translate(-501.965 84.765)" fill="none" stroke="#575758" stroke-linecap="round" stroke-linejoin="round" stroke-width="1"/>
          <path id="Trazado_173841" data-name="Trazado 173841" d="M493.363,27.243A157.276,157.276,0,1,1,710.135,197.064" transform="translate(-493.363 104.982)" fill="none" stroke="#575758" stroke-linecap="round" stroke-linejoin="round" stroke-width="1"/>
        </g>
        <path id="Trazado_173938" data-name="Trazado 173938" d="M629.938,226.2a4.146,4.146,0,1,1-4.145-4.145A4.145,4.145,0,0,1,629.938,226.2Z" transform="translate(-501.41 84.465)" fill="none" stroke="#575758" stroke-linecap="round" stroke-linejoin="round" stroke-width="1"/>
      </g>
      <g id="Grupo_124173" data-name="Grupo 124173" transform="translate(605.116 447.186)">
        <g id="Grupo_118323" data-name="Grupo 118323" transform="translate(25.89)">
          <path id="Trazado_173833" data-name="Trazado 173833" d="M673.64,39.9a3.53,3.53,0,1,1-3.53-3.532A3.531,3.531,0,0,1,673.64,39.9Z" transform="translate(-666.58 -36.371)" fill="none" stroke="#21999a" stroke-miterlimit="10" stroke-width="1"/>
          <path id="Trazado_173834" data-name="Trazado 173834" d="M688.962,39.9a3.531,3.531,0,1,1-3.532-3.532A3.532,3.532,0,0,1,688.962,39.9Z" transform="translate(-656.01 -36.371)" fill="none" stroke="#0f1027" stroke-miterlimit="10" stroke-width="0.78"/>
          <path id="Trazado_173835" data-name="Trazado 173835" d="M704.281,39.9a3.53,3.53,0,1,1-3.53-3.532A3.531,3.531,0,0,1,704.281,39.9Z" transform="translate(-645.441 -36.371)" fill="none" stroke="#0f1027" stroke-miterlimit="10" stroke-width="0.78"/>
        </g>
        <g id="Grupo_118324" data-name="Grupo 118324" transform="translate(0 22.36)">
          <ellipse id="Elipse_4967" data-name="Elipse 4967" cx="3.53" cy="3.53" rx="3.53" ry="3.53" fill="none" stroke="#0f1027" stroke-miterlimit="10" stroke-width="0.78"/>
          <path id="Trazado_173836" data-name="Trazado 173836" d="M673.64,53.133a3.53,3.53,0,1,1-3.53-3.53A3.53,3.53,0,0,1,673.64,53.133Z" transform="translate(-640.69 -49.602)" fill="none" stroke="#21999a" stroke-miterlimit="10" stroke-width="0.78"/>
          <path id="Trazado_173837" data-name="Trazado 173837" d="M688.962,53.133a3.531,3.531,0,1,1-3.532-3.53A3.531,3.531,0,0,1,688.962,53.133Z" transform="translate(-630.121 -49.602)" fill="none" stroke="#0f1027" stroke-miterlimit="10" stroke-width="0.78"/>
          <path id="Trazado_173838" data-name="Trazado 173838" d="M688.962,65.435a3.531,3.531,0,1,1-3.532-3.53A3.531,3.531,0,0,1,688.962,65.435Z" transform="translate(-630.121 -41.115)" fill="none" stroke="#af0f3f" stroke-miterlimit="10" stroke-width="1"/>
        </g>
      </g>
      <g id="Grupo_124241" data-name="Grupo 124241" transform="translate(280.376 604.656) rotate(-90)">
        <g id="Grupo_118323-2" data-name="Grupo 118323" transform="translate(25.89)">
          <path id="Trazado_173833-2" data-name="Trazado 173833" d="M673.64,39.9a3.53,3.53,0,1,1-3.53-3.532A3.531,3.531,0,0,1,673.64,39.9Z" transform="translate(-666.58 -36.371)" fill="none" stroke="#21999a" stroke-miterlimit="10" stroke-width="1"/>
          <path id="Trazado_173834-2" data-name="Trazado 173834" d="M688.962,39.9a3.531,3.531,0,1,1-3.532-3.532A3.532,3.532,0,0,1,688.962,39.9Z" transform="translate(-656.01 -36.371)" fill="none" stroke="#0f1027" stroke-miterlimit="10" stroke-width="0.78"/>
          <path id="Trazado_173835-2" data-name="Trazado 173835" d="M704.281,39.9a3.53,3.53,0,1,1-3.53-3.532A3.531,3.531,0,0,1,704.281,39.9Z" transform="translate(-645.441 -36.371)" fill="none" stroke="#0f1027" stroke-miterlimit="10" stroke-width="0.78"/>
        </g>
        <g id="Grupo_118324-2" data-name="Grupo 118324" transform="translate(0 22.36)">
          <ellipse id="Elipse_4967-2" data-name="Elipse 4967" cx="3.53" cy="3.53" rx="3.53" ry="3.53" fill="none" stroke="#0f1027" stroke-miterlimit="10" stroke-width="0.78"/>
          <path id="Trazado_173836-2" data-name="Trazado 173836" d="M673.64,53.133a3.53,3.53,0,1,1-3.53-3.53A3.53,3.53,0,0,1,673.64,53.133Z" transform="translate(-640.69 -49.602)" fill="none" stroke="#21999a" stroke-miterlimit="10" stroke-width="0.78"/>
          <path id="Trazado_173837-2" data-name="Trazado 173837" d="M688.962,53.133a3.531,3.531,0,1,1-3.532-3.53A3.531,3.531,0,0,1,688.962,53.133Z" transform="translate(-630.121 -49.602)" fill="none" stroke="#0f1027" stroke-miterlimit="10" stroke-width="0.78"/>
          <path id="Trazado_173838-2" data-name="Trazado 173838" d="M688.962,65.435a3.531,3.531,0,1,1-3.532-3.53A3.531,3.531,0,0,1,688.962,65.435Z" transform="translate(-630.121 -41.115)" fill="none" stroke="#af0f3f" stroke-miterlimit="10" stroke-width="1"/>
        </g>
      </g>
    </g>
    <g id="Grupo_124240" data-name="Grupo 124240" transform="translate(84.949 2843.975)">
      <g id="Grupo_124208" data-name="Grupo 124208" transform="translate(225.443 55.722)">
        <path id="Trazado_174075" data-name="Trazado 174075" d="M191.643,147.4a.521.521,0,0,1-.513-.439L176.476,55.011a.519.519,0,0,1,.694-.569l182.085,67.5a.52.52,0,0,1-.106,1L191.72,147.4A.5.5,0,0,1,191.643,147.4Zm-14-91.676,14.434,90.569,164.91-24.089Z" transform="translate(-176.47 -54.408)" fill="#131313"/>
      </g>
      <g id="Grupo_124209" data-name="Grupo 124209" transform="translate(143.96 237.104)">
        <path id="Trazado_174076" data-name="Trazado 174076" d="M137.783,326.949a.519.519,0,0,1-.38-.875l118.126-126.35a.514.514,0,0,1,.26-.15L497.9,141.7a.521.521,0,0,1,.522.838L392.287,271.019a.52.52,0,0,1-.289.177l-254.1,55.741A.512.512,0,0,1,137.783,326.949Zm118.4-126.4L139.3,325.565l252.3-55.346L496.632,143.07Z" transform="translate(-137.262 -141.684)" fill="#131313"/>
      </g>
      <g id="Grupo_124210" data-name="Grupo 124210" transform="translate(133.581 147.676)">
        <path id="Trazado_174077" data-name="Trazado 174077" d="M143.168,373.347a.572.572,0,0,1-.177-.029.527.527,0,0,1-.343-.459L132.27,197.8a.515.515,0,0,1,.164-.411l106.519-98.6a.515.515,0,0,1,.524-.108.52.52,0,0,1,.343.414l21.988,147.3a.524.524,0,0,1-.133.432L143.546,373.182A.512.512,0,0,1,143.168,373.347Zm-9.849-175.36,10.3,173.6L260.743,246.3,238.936,100.223Z" transform="translate(-132.268 -98.654)" fill="#131313"/>
      </g>
      <g id="Grupo_124211" data-name="Grupo 124211" transform="translate(143.961 294.977)">
        <path id="Trazado_174078" data-name="Trazado 174078" d="M390.3,345.82a.815.815,0,0,1-.1-.008l-252.521-48.9a.513.513,0,0,1-.395-.349.521.521,0,0,1,.114-.515L255.529,169.7a.472.472,0,0,1,.405-.164.521.521,0,0,1,.387.2L390.715,344.985a.519.519,0,0,1-.411.836ZM138.8,296.073,389.057,344.53,255.87,170.856Z" transform="translate(-137.263 -169.53)" fill="#131313"/>
      </g>
      <g id="Grupo_124219" data-name="Grupo 124219" transform="translate(174.546 113.048)">
        <g id="Grupo_124212" data-name="Grupo 124212" transform="translate(0 108.042)">
          <path id="Trazado_174079" data-name="Trazado 174079" d="M304.73,133.979l-152.75,47.459,25.007,133.636L367.019,247.49Z" transform="translate(-151.979 -133.979)" fill="#d1d1d1"/>
        </g>
        <g id="Grupo_124213" data-name="Grupo 124213">
          <path id="Trazado_174080" data-name="Trazado 174080" d="M204.11,81.992l-52.13,155.5,152.75-47.459Z" transform="translate(-151.979 -81.992)" fill="#e0e0e0"/>
        </g>
        <g id="Grupo_124216" data-name="Grupo 124216" transform="translate(52.13)">
          <g id="Grupo_124214" data-name="Grupo 124214" transform="translate(100.62 34.21)">
            <path id="Trazado_174081" data-name="Trazado 174081" d="M225.478,172.285l46-73.832,85.432,78.2L287.768,285.8Z" transform="translate(-225.478 -98.453)" fill="#e0e0e0"/>
          </g>
          <g id="Grupo_124215" data-name="Grupo 124215">
            <path id="Trazado_174082" data-name="Trazado 174082" d="M177.063,81.992,323.681,116.2l-46,73.832Z" transform="translate(-177.063 -81.992)" fill="#fcfcfc"/>
          </g>
        </g>
        <g id="Grupo_124217" data-name="Grupo 124217" transform="translate(215.039 112.408)">
          <path id="Trazado_174083" data-name="Trazado 174083" d="M324.591,136.079l-60.18,189.787-8.96-80.641Z" transform="translate(-255.45 -136.079)" fill="#d1d1d1"/>
        </g>
        <g id="Grupo_124218" data-name="Grupo 124218" transform="translate(25.007 221.554)">
          <path id="Trazado_174084" data-name="Trazado 174084" d="M354.044,188.6,164.012,256.18,363,269.238Z" transform="translate(-164.012 -188.597)" fill="#afafaf"/>
        </g>
      </g>
      <g id="Grupo_124232" data-name="Grupo 124232" transform="translate(133.58 55.723)">
        <g id="Grupo_124221" data-name="Grupo 124221" transform="translate(0.001 154.536)">
          <g id="Grupo_124220" data-name="Grupo 124220">
            <path id="Trazado_174085" data-name="Trazado 174085" d="M143.168,340.877a.522.522,0,0,1-.52-.488L132.27,165.332a.517.517,0,0,1,.428-.54l203.142-36.018a.523.523,0,0,1,.574.32l61.342,155.331a.521.521,0,0,1-.372.7l-254.1,55.741A.5.5,0,0,1,143.168,340.877Zm-9.834-175.143L143.65,339.721,396.562,284.24,335.6,129.871Z" transform="translate(-132.269 -128.767)" fill="#131313"/>
          </g>
        </g>
        <g id="Grupo_124223" data-name="Grupo 124223" transform="translate(0 0.001)">
          <g id="Grupo_124222" data-name="Grupo 124222">
            <path id="Trazado_174086" data-name="Trazado 174086" d="M132.788,246a.524.524,0,0,1-.414-.206.518.518,0,0,1-.054-.54L224.183,54.7a.517.517,0,0,1,.422-.293.538.538,0,0,1,.468.214l111.28,154.535a.522.522,0,0,1,.058.5.516.516,0,0,1-.389.316L132.877,245.992A.624.624,0,0,1,132.788,246ZM224.74,55.939,133.7,244.79l201.327-35.7Z" transform="translate(-132.268 -54.409)" fill="#0f1027"/>
          </g>
        </g>
        <g id="Grupo_124225" data-name="Grupo 124225" transform="translate(203.143 67.497)">
          <g id="Grupo_124224" data-name="Grupo 124224">
            <path id="Trazado_174087" data-name="Trazado 174087" d="M291.875,330.294a.553.553,0,0,1-.081-.006.516.516,0,0,1-.4-.322L230.051,174.634a.527.527,0,0,1,.079-.52l70.806-87.038a.659.659,0,0,1,.4-.191.516.516,0,0,1,.395.183l96.673,113.885a.521.521,0,0,1,0,.667L292.276,330.1A.521.521,0,0,1,291.875,330.294ZM231.129,174.535l60.906,154.23,105.3-127.472L301.347,88.218Z" transform="translate(-230.015 -86.886)" fill="#0f1027"/>
          </g>
        </g>
        <g id="Grupo_124227" data-name="Grupo 124227" transform="translate(91.864)">
          <g id="Grupo_124226" data-name="Grupo 124226">
            <path id="Trazado_174088" data-name="Trazado 174088" d="M288.27,209.982h-.017a.519.519,0,0,1-.407-.216L176.569,55.231a.518.518,0,0,1,.6-.79l182.085,67.5a.521.521,0,0,1,.32.351.511.511,0,0,1-.1.463l-70.8,87.04A.524.524,0,0,1,288.27,209.982ZM178.407,56.008l109.886,152.6,69.921-85.949Z" transform="translate(-176.47 -54.408)" fill="#131313"/>
          </g>
        </g>
        <g id="Grupo_124229" data-name="Grupo 124229" transform="translate(262.902 181.381)">
          <g id="Grupo_124228" data-name="Grupo 124228">
            <path id="Trazado_174089" data-name="Trazado 174089" d="M259.289,375.846a.709.709,0,0,1-.116-.01.521.521,0,0,1-.4-.515l1.582-104.64a.523.523,0,0,1,.121-.322L366.606,141.871a.52.52,0,0,1,.871.551L259.758,375.545A.517.517,0,0,1,259.289,375.846Zm2.1-104.969-1.544,102.007L364.85,145.627Z" transform="translate(-258.769 -141.684)" fill="#0f1027"/>
          </g>
        </g>
        <g id="Grupo_124231" data-name="Grupo 124231" transform="translate(10.381 309.865)">
          <g id="Grupo_124230" data-name="Grupo 124230">
            <path id="Trazado_174090" data-name="Trazado 174090" d="M390.3,309.185a.814.814,0,0,1-.1-.008l-252.521-48.9a.519.519,0,0,1-.012-1.016l254.1-55.741a.5.5,0,0,1,.439.106.508.508,0,0,1,.191.409l-1.582,104.638a.518.518,0,0,1-.52.511ZM140.351,259.737l249.441,48.3,1.563-103.364Z" transform="translate(-137.263 -203.506)" fill="#131313"/>
          </g>
        </g>
      </g>
      <g id="Grupo_124233" data-name="Grupo 124233" transform="translate(222.908 53.189)">
        <path id="Trazado_174091" data-name="Trazado 174091" d="M181.337,56.624a3.055,3.055,0,1,1-2.65-3.41A3.058,3.058,0,0,1,181.337,56.624Z" transform="translate(-175.25 -53.189)" fill="#131313"/>
      </g>
      <g id="Grupo_124234" data-name="Grupo 124234" transform="translate(405.033 120.353)">
        <path id="Trazado_174092" data-name="Trazado 174092" d="M268.97,88.943a3.055,3.055,0,1,1-2.65-3.413A3.055,3.055,0,0,1,268.97,88.943Z" transform="translate(-262.883 -85.506)" fill="#131313"/>
      </g>
      <g id="Grupo_124235" data-name="Grupo 124235" transform="translate(501.664 234.569)">
        <path id="Trazado_174093" data-name="Trazado 174093" d="M315.466,143.9a3.055,3.055,0,1,1-2.648-3.415A3.059,3.059,0,0,1,315.466,143.9Z" transform="translate(-309.379 -140.464)" fill="#131313"/>
      </g>
      <g id="Grupo_124236" data-name="Grupo 124236" transform="translate(393.946 467.693)">
        <path id="Trazado_174094" data-name="Trazado 174094" d="M263.635,256.071a3.055,3.055,0,1,1-2.646-3.41A3.052,3.052,0,0,1,263.635,256.071Z" transform="translate(-257.548 -252.636)" fill="#131313"/>
      </g>
      <g id="Grupo_124237" data-name="Grupo 124237" transform="translate(141.424 418.796)">
        <path id="Trazado_174095" data-name="Trazado 174095" d="M142.129,232.547a3.055,3.055,0,1,1-2.648-3.413A3.056,3.056,0,0,1,142.129,232.547Z" transform="translate(-136.042 -229.109)" fill="#131313"/>
      </g>
      <g id="Grupo_124238" data-name="Grupo 124238" transform="translate(395.53 363.052)">
        <path id="Trazado_174096" data-name="Trazado 174096" d="M264.395,205.725a3.054,3.054,0,1,1-2.646-3.415A3.045,3.045,0,0,1,264.395,205.725Z" transform="translate(-258.311 -202.286)" fill="#131313"/>
      </g>
      <g id="Grupo_124239" data-name="Grupo 124239" transform="translate(131.051 243.685)">
        <path id="Trazado_174097" data-name="Trazado 174097" d="M137.136,148.287a3.054,3.054,0,1,1-2.648-3.413A3.057,3.057,0,0,1,137.136,148.287Z" transform="translate(-131.051 -144.85)" fill="#131313"/>
      </g>
    </g>
  </g>
</svg>
