<svg xmlns="http://www.w3.org/2000/svg" xmlns:xlink="http://www.w3.org/1999/xlink" width="84" height="82" viewBox="0 0 84 82">
  <defs>
    <clipPath id="clip-path">
      <rect id="Rectángulo_36027" data-name="Rectángulo 36027" width="84" height="82" transform="translate(-10095 -7694)" fill="#fff" stroke="#707070" stroke-width="1"/>
    </clipPath>
  </defs>
  <g id="Enmascarar_grupo_97" data-name="Enmascarar grupo 97" transform="translate(10095 7694)" clip-path="url(#clip-path)">
    <g id="wdAW7N.tif" transform="translate(-10345.538 -6250.666)">
      <g id="Grupo_124250" data-name="Grupo 124250" transform="translate(262.598 -1432.087)">
        <path id="Trazado_174142" data-name="Trazado 174142" d="M322.478-1384.585c-.149.6-.321,1.2-.442,1.813a11.818,11.818,0,0,1-8.416,9.552,11.442,11.442,0,0,1-12.3-3.147,4.416,4.416,0,0,0-4.194-1.428,21.777,21.777,0,0,1-18.591-6.321c-3.163-3.048-6.246-6.181-9.323-9.317a22.6,22.6,0,0,1,.316-32.255,22.727,22.727,0,0,1,32.29.68c2.713,2.82,5.531,5.538,8.291,8.311a22.718,22.718,0,0,1,6.863,19.6,3.07,3.07,0,0,0,.483,2.339,14.669,14.669,0,0,1,5.026,9.217Zm-7.734-12.648c1.922-7.951-2.935-17.362-10.632-21.4a20.711,20.711,0,0,0-24.987,4.389,20.762,20.762,0,0,0-1.968,25.481c4.955,7.552,14.95,10.6,19.814,8.864-3.522-3.7-7.1-7.554-10.789-11.3-3.427-3.476-4.812-7.507-3.5-12.242a11.689,11.689,0,0,1,9.253-8.743c4.7-1.039,8.633.641,11.944,3.982ZM301.6-1422.147c-4.528-6.369-13.2-9.4-21.267-7.424-8.373,2.047-14.452,9.041-15.625,17.977-.929,7.075,2.815,15.6,8.139,18.537C267.43-1410.747,283.435-1427.6,301.6-1422.147Zm10.248,25.009a4.6,4.6,0,0,0-.558-.974c-3.281-3.27-6.485-6.623-9.9-9.753a10.217,10.217,0,0,0-14.447.547,10.256,10.256,0,0,0,.506,14.623q2.408,2.335,4.8,4.682c1.779,1.755,3.543,3.525,5.532,5.505C298.176-1392.668,302.372-1396.97,311.843-1397.138Zm-12.053,12.145a10.309,10.309,0,0,0,10.22,10.449,10.445,10.445,0,0,0,10.4-10.339,10.363,10.363,0,0,0-10.168-10.285A10.212,10.212,0,0,0,299.79-1384.993Z" transform="translate(-262.598 1432.087)" fill="#0f1027"/>
      </g>
    </g>
  </g>
</svg>
