<svg xmlns="http://www.w3.org/2000/svg" xmlns:xlink="http://www.w3.org/1999/xlink" width="84" height="82" viewBox="0 0 84 82">
  <defs>
    <clipPath id="clip-path">
      <rect id="Rectángulo_36024" data-name="Rectángulo 36024" width="84" height="82" transform="translate(-10095 -7694)" fill="#fff" stroke="#707070" stroke-width="1"/>
    </clipPath>
  </defs>
  <g id="Enmascarar_grupo_94" data-name="Enmascarar grupo 94" transform="translate(10095 7694)" clip-path="url(#clip-path)">
    <g id="akgAv5.tif" transform="translate(-9556.914 -6448.677)">
      <g id="Grupo_124247" data-name="Grupo 124247" transform="translate(-532.212 -1232.612)">
        <path id="Trazado_174123" data-name="Trazado 174123" d="M-459.4-1195.83c-.276,1.458-.442,2.948-.847,4.369a20.52,20.52,0,0,1-10.521,12.966,20.548,20.548,0,0,1-16.047,1.485,19.493,19.493,0,0,1-8.4-4.985,3.419,3.419,0,0,0-2.711-1.112c-11.09.043-22.18.026-33.27.026h-1.016l20.928-36.231,1,1.652.126-.037v-14.915H-476.5v.86c0,4.358.008,8.716-.011,13.073,0,.512.132.721.66.852a20.662,20.662,0,0,1,15.03,13.115,38.284,38.284,0,0,1,1.271,5.145c.059.248.1.5.145.752Zm-48.17-5.81h28.494v-28.469H-507.57Zm31.064,2.569h-21.7a1.483,1.483,0,0,0-.562.016c-.171.077-.4.262-.413.414a18.39,18.39,0,0,0,.783,6.987,18.718,18.718,0,0,0,21.544,12.715,18.687,18.687,0,0,0,14.769-20.494,18.588,18.588,0,0,0-13.706-15.79c-.213-.057-.434-.086-.719-.141Zm-33.644,0v-.882c0-3.788-.044-7.576.026-11.363a5.589,5.589,0,0,0-1.164-2.946l-16.515,28.6H-498.4a.967.967,0,0,0-.056-.19,21.249,21.249,0,0,1-3.328-11.707,1.477,1.477,0,0,0-1.532-1.512Z" transform="translate(532.212 1232.612)" fill="#0f1027"/>
      </g>
    </g>
  </g>
</svg>
