<svg xmlns="http://www.w3.org/2000/svg" xmlns:xlink="http://www.w3.org/1999/xlink" width="260.223" height="110.491" viewBox="0 0 260.223 110.491">
  <defs>
    <radialGradient id="radial-gradient" cx="0.077" cy="0.019" r="1.465" gradientTransform="matrix(1, 0, 0, -1, 0, 9.666)" gradientUnits="objectBoundingBox">
      <stop offset="0" stop-color="#f4f4f5"/>
      <stop offset="0.477" stop-color="#f7f8fa"/>
      <stop offset="0.715" stop-color="#fff"/>
    </radialGradient>
  </defs>
  <g id="Grupo_124897" data-name="Grupo 124897" transform="translate(-1071.777 -1392)">
    <g id="Group_87331" data-name="Group 87331" transform="translate(1071.777 1392)">
      <g id="Group_18531" data-name="Group 18531">
        <g id="Group_18423" data-name="Group 18423">
          <g id="Group_18421" data-name="Group 18421">
            <g id="Group_18420" data-name="Group 18420">
              <g id="Group_18419" data-name="Group 18419">
                <path id="Path_40936" data-name="Path 40936" d="M233.291,570.076a55.246,55.246,0,1,1-55.248-55.244h0A55.244,55.244,0,0,1,233.291,570.076Z" transform="translate(-122.8 -514.832)" fill="#fff"/>
              </g>
            </g>
          </g>
          <path id="Path_40937" data-name="Path 40937" d="M233.289,570.076a55.026,55.026,0,1,0,0,.436Z" transform="translate(-122.798 -514.832)" fill="url(#radial-gradient)"/>
          <path id="Path_40938" data-name="Path 40938" d="M213.949,563.818a42.169,42.169,0,1,0-42.168,42.169h0a42.013,42.013,0,0,0,42.168-41.855Z" transform="translate(-116.365 -508.39)" fill="none" stroke="#af0f3f" stroke-miterlimit="10" stroke-width="4"/>
          <g id="Group_18422" data-name="Group 18422" transform="translate(9.788 31.017)">
            <path id="Path_40939" data-name="Path 40939" d="M222.95,530.78a55.252,55.252,0,0,1-95.117,55.014A55.077,55.077,0,0,0,222.95,530.78Z" transform="translate(-127.833 -530.78)" fill="#e7e9eb"/>
          </g>
        </g>
      </g>
      <g id="Grupo_124126" data-name="Grupo 124126" transform="translate(207.93 769.486)">
        <path id="Trazado_173939" data-name="Trazado 173939" d="M-138.149-700.486q-11.543,0-23.085,0c-1.722,0-2.105-.386-2.105-2.1q0-13.335,0-26.67c0-1.735.376-2.117,2.089-2.118,4.314,0,8.628-.016,12.941-.006s8.609.057,12.914.062c3.054,0,6.109-.054,9.163-.053,3.434,0,6.867.038,10.3.056.32,0,.641-.008.959-.037,1.453-.129,2.1.453,2.116,1.947.014,1.632,0,3.265,0,4.9q0,3.842-.006,7.683,0,7.214,0,14.428c0,1.482-.431,1.911-1.936,1.912Q-126.475-700.483-138.149-700.486Zm23.088-28.256H-161.08v25.494h46.019Z" transform="translate(-15.125 0)" fill="#0f1027"/>
        <path id="Trazado_173940" data-name="Trazado 173940" d="M-181.635-548.541h56.8A2.553,2.553,0,0,1-127-545.77a4.94,4.94,0,0,1-.783.055q-25.448,0-50.895,0a2.71,2.71,0,0,1-2.992-2.439A1.924,1.924,0,0,1-181.635-548.541Z" transform="translate(0 -150.859)" fill="#0f1027"/>
        <path id="Trazado_173942" data-name="Trazado 173942" d="M-49.4-682.291a7.843,7.843,0,0,1-.8-.172c-.48-.155-.8-.371-.771-1.008.067-1.271.02-2.549.02-3.992-1.442.667-2.716,1.359-4.063,1.849a1.953,1.953,0,0,0-1.465,2.318c.13,1.907.034,3.829.034,5.9l4.753-2.189.789,1.428a25.189,25.189,0,0,0-3.251,1.558,5.2,5.2,0,0,1-6.271-.017,27.838,27.838,0,0,0-3.942-1.862,1.281,1.281,0,0,1-.872-1.337c.027-2.767.014-5.534,0-8.3A1.591,1.591,0,0,1-64.2-689.8c2.1-.908,4.146-1.932,6.24-2.85a1.824,1.824,0,0,1,1.311-.034c2.123.922,4.221,1.9,6.3,2.909.372.18.893.578.9.892C-49.362-686.693-49.4-684.494-49.4-682.291Zm-8.675,4.923c0-2.479.007-4.777-.012-7.074a.739.739,0,0,0-.271-.569c-1.691-.821-3.4-1.607-5.24-2.466,0,2.515-.006,4.863.014,7.21a.628.628,0,0,0,.309.452C-61.6-679.012-59.918-678.231-58.075-677.369Zm5.863-11.351c-.1-.133-.14-.227-.207-.259-1.438-.681-2.873-1.369-4.325-2.016a1.155,1.155,0,0,0-.836-.028c-1.581.693-3.143,1.429-4.919,2.247,1.8.838,3.392,1.582,4.989,2.308a.667.667,0,0,0,.495,0C-55.421-687.2-53.834-687.956-52.212-688.72Z" transform="translate(-96.062 -31.84)" fill="#0f1027"/>
        <path id="Trazado_173943" data-name="Trazado 173943" d="M-115.771-643.255l4.379-2.024a2.609,2.609,0,0,1,.636-.28,2.606,2.606,0,0,1,.693.074c-.117.224-.177.562-.361.655-1.195.6-2.417,1.152-3.629,1.723-.3.143-.6.3-1.084.542,1.542.719,2.913,1.331,4.254,2,.336.169.86.7.811.783-.352.623-.8.124-1.173-.046-1.566-.7-3.113-1.453-4.677-2.162a.952.952,0,0,1-.685-.975c.027-1.776,0-3.554.033-5.33,0-.251.251-.5.385-.747.139.243.394.483.4.729C-115.753-646.685-115.771-645.06-115.771-643.255Z" transform="translate(-53.682 -67.943)" fill="#0f1027"/>
        <path id="Trazado_173944" data-name="Trazado 173944" d="M10.849-630.087l.776.192a15.16,15.16,0,0,0,.645,1.757c.739,1.419,1.526,2.813,2.3,4.214.131.238.3.457.544.836l.684-2.4,2.562,1.591.659-.355-1.456-1.372.181-.18c1.024.2,1.591.888,1.371,1.666-.238.845-.907,1.026-1.588.449-.23-.194-.525-.311-.753-.507a6.872,6.872,0,0,1-.611-.673c-.627.726-.11,2.016-1.427,2.389L10.654-629.9Z" transform="translate(-158.68 -83.578)" fill="#0f1027"/>
        <path id="Trazado_173945" data-name="Trazado 173945" d="M26.156-624.648c-.6.334-.957.526-1.307.726a1.386,1.386,0,0,0-.429.289,4.1,4.1,0,0,0-.34.64l-.61-.753,1.884-1.145c-2.105-.621-4.024-1.182-5.938-1.761a1.687,1.687,0,0,1-.449-.334,2.66,2.66,0,0,1,.551.038c1.906.531,3.813,1.058,5.707,1.626A4.018,4.018,0,0,1,26.156-624.648Z" transform="translate(-165.54 -86.137)" fill="#0f1027"/>
      </g>
    </g>
    <g id="Grupo_124127" data-name="Grupo 124127" transform="translate(-10)">
      <g id="Grupo_124125" data-name="Grupo 124125" transform="translate(-7.313 915)">
        <g id="Grupo_118501" data-name="Grupo 118501" transform="translate(1228.631 547.965)">
          <g id="Grupo_118415" data-name="Grupo 118415">
            <line id="Línea_1604" data-name="Línea 1604" x1="17.444" y2="17.444" fill="none" stroke="#0f1027" stroke-miterlimit="10" stroke-width="0.78"/>
            <line id="Línea_1605" data-name="Línea 1605" x1="17.444" y2="17.444" transform="translate(8.499)" fill="none" stroke="#0f1027" stroke-miterlimit="10" stroke-width="0.78"/>
            <line id="Línea_1606" data-name="Línea 1606" x1="17.444" y2="17.444" transform="translate(16.997)" fill="none" stroke="#0f1027" stroke-miterlimit="10" stroke-width="0.78"/>
            <line id="Línea_1607" data-name="Línea 1607" x1="17.444" y2="17.444" transform="translate(25.496)" fill="none" stroke="#0f1027" stroke-miterlimit="10" stroke-width="0.78"/>
            <line id="Línea_1608" data-name="Línea 1608" x1="17.444" y2="17.444" transform="translate(33.994)" fill="none" stroke="#0f1027" stroke-miterlimit="10" stroke-width="0.78"/>
            <line id="Línea_1609" data-name="Línea 1609" x1="17.444" y2="17.444" transform="translate(42.493)" fill="none" stroke="#0f1027" stroke-miterlimit="10" stroke-width="0.78"/>
            <line id="Línea_1610" data-name="Línea 1610" x1="17.444" y2="17.444" transform="translate(50.991)" fill="none" stroke="#0f1027" stroke-miterlimit="10" stroke-width="0.78"/>
            <line id="Línea_1611" data-name="Línea 1611" x1="17.444" y2="17.444" transform="translate(59.49)" fill="none" stroke="#0f1027" stroke-miterlimit="10" stroke-width="0.78"/>
            <line id="Línea_1612" data-name="Línea 1612" x1="17.444" y2="17.444" transform="translate(67.988)" fill="none" stroke="#0f1027" stroke-miterlimit="10" stroke-width="0.78"/>
            <line id="Línea_1613" data-name="Línea 1613" x1="17.444" y2="17.444" transform="translate(76.487)" fill="none" stroke="#0f1027" stroke-miterlimit="10" stroke-width="0.78"/>
            <line id="Línea_1614" data-name="Línea 1614" x1="17.444" y2="17.444" transform="translate(84.985)" fill="none" stroke="#0f1027" stroke-miterlimit="10" stroke-width="0.78"/>
            <line id="Línea_1615" data-name="Línea 1615" x1="17.444" y2="17.444" transform="translate(93.484)" fill="none" stroke="#0f1027" stroke-miterlimit="10" stroke-width="0.78"/>
            <line id="Línea_1616" data-name="Línea 1616" x1="17.444" y2="17.444" transform="translate(101.982)" fill="none" stroke="#0f1027" stroke-miterlimit="10" stroke-width="0.78"/>
          </g>
        </g>
        <rect id="Rectángulo_35460" data-name="Rectángulo 35460" width="76.934" height="6.452" transform="translate(1228.631 531)" fill="#21999a"/>
        <rect id="Rectángulo_35461" data-name="Rectángulo 35461" width="32.073" height="6.452" transform="translate(1315.984 531)" fill="#0f1027"/>
      </g>
      <text id="Herramientas_3D" data-name="Herramientas 3D" transform="translate(1220 1436)" fill="#0f1027" font-size="16" font-family="Roboto-Bold, Roboto" font-weight="700"><tspan x="0" y="0">Herramientas 3D</tspan></text>
    </g>
  </g>
</svg>
